<?xml version="1.0" encoding="utf-8" standalone="no"?>
<!DOCTYPE svg PUBLIC "-//W3C//DTD SVG 1.1//EN"
  "http://www.w3.org/Graphics/SVG/1.1/DTD/svg11.dtd">
<!-- Created with matplotlib (http://matplotlib.org/) -->
<svg height="504pt" version="1.1" viewBox="0 0 720 504" width="720pt" xmlns="http://www.w3.org/2000/svg" xmlns:xlink="http://www.w3.org/1999/xlink">
 <defs>
  <style type="text/css">
*{stroke-linecap:butt;stroke-linejoin:round;}
  </style>
 </defs>
 <g id="figure_1">
  <g id="patch_1">
   <path d="M 0 504 
L 720 504 
L 720 0 
L 0 0 
z
" style="fill:#ffffff;"/>
  </g>
  <g id="axes_1">
   <g id="patch_2">
    <path d="M 90 441 
L 648 441 
L 648 60.48 
L 90 60.48 
z
" style="fill:#ffffff;"/>
   </g>
   <g id="matplotlib.axis_1">
    <g id="xtick_1">
     <g id="line2d_1">
      <defs>
       <path d="M 0 0 
L 0 3.5 
" id="ma8c22396b6" style="stroke:#000000;stroke-width:0.8;"/>
      </defs>
      <g>
       <use style="stroke:#000000;stroke-width:0.8;" x="155.411483" xlink:href="#ma8c22396b6" y="441"/>
      </g>
     </g>
     <g id="text_1">
      <!-- 2.5 -->
      <defs>
       <path d="M 19.1875 8.296875 
L 53.609375 8.296875 
L 53.609375 0 
L 7.328125 0 
L 7.328125 8.296875 
Q 12.9375 14.109375 22.625 23.890625 
Q 32.328125 33.6875 34.8125 36.53125 
Q 39.546875 41.84375 41.421875 45.53125 
Q 43.3125 49.21875 43.3125 52.78125 
Q 43.3125 58.59375 39.234375 62.25 
Q 35.15625 65.921875 28.609375 65.921875 
Q 23.96875 65.921875 18.8125 64.3125 
Q 13.671875 62.703125 7.8125 59.421875 
L 7.8125 69.390625 
Q 13.765625 71.78125 18.9375 73 
Q 24.125 74.21875 28.421875 74.21875 
Q 39.75 74.21875 46.484375 68.546875 
Q 53.21875 62.890625 53.21875 53.421875 
Q 53.21875 48.921875 51.53125 44.890625 
Q 49.859375 40.875 45.40625 35.40625 
Q 44.1875 33.984375 37.640625 27.21875 
Q 31.109375 20.453125 19.1875 8.296875 
z
" id="DejaVuSans-32"/>
       <path d="M 10.6875 12.40625 
L 21 12.40625 
L 21 0 
L 10.6875 0 
z
" id="DejaVuSans-2e"/>
       <path d="M 10.796875 72.90625 
L 49.515625 72.90625 
L 49.515625 64.59375 
L 19.828125 64.59375 
L 19.828125 46.734375 
Q 21.96875 47.46875 24.109375 47.828125 
Q 26.265625 48.1875 28.421875 48.1875 
Q 40.625 48.1875 47.75 41.5 
Q 54.890625 34.8125 54.890625 23.390625 
Q 54.890625 11.625 47.5625 5.09375 
Q 40.234375 -1.421875 26.90625 -1.421875 
Q 22.3125 -1.421875 17.546875 -0.640625 
Q 12.796875 0.140625 7.71875 1.703125 
L 7.71875 11.625 
Q 12.109375 9.234375 16.796875 8.0625 
Q 21.484375 6.890625 26.703125 6.890625 
Q 35.15625 6.890625 40.078125 11.328125 
Q 45.015625 15.765625 45.015625 23.390625 
Q 45.015625 31 40.078125 35.4375 
Q 35.15625 39.890625 26.703125 39.890625 
Q 22.75 39.890625 18.8125 39.015625 
Q 14.890625 38.140625 10.796875 36.28125 
z
" id="DejaVuSans-35"/>
      </defs>
      <g transform="translate(147.459921 455.598437)scale(0.1 -0.1)">
       <use xlink:href="#DejaVuSans-32"/>
       <use x="63.623047" xlink:href="#DejaVuSans-2e"/>
       <use x="95.410156" xlink:href="#DejaVuSans-35"/>
      </g>
     </g>
    </g>
    <g id="xtick_2">
     <g id="line2d_2">
      <g>
       <use style="stroke:#000000;stroke-width:0.8;" x="222.157895" xlink:href="#ma8c22396b6" y="441"/>
      </g>
     </g>
     <g id="text_2">
      <!-- 5.0 -->
      <defs>
       <path d="M 31.78125 66.40625 
Q 24.171875 66.40625 20.328125 58.90625 
Q 16.5 51.421875 16.5 36.375 
Q 16.5 21.390625 20.328125 13.890625 
Q 24.171875 6.390625 31.78125 6.390625 
Q 39.453125 6.390625 43.28125 13.890625 
Q 47.125 21.390625 47.125 36.375 
Q 47.125 51.421875 43.28125 58.90625 
Q 39.453125 66.40625 31.78125 66.40625 
z
M 31.78125 74.21875 
Q 44.046875 74.21875 50.515625 64.515625 
Q 56.984375 54.828125 56.984375 36.375 
Q 56.984375 17.96875 50.515625 8.265625 
Q 44.046875 -1.421875 31.78125 -1.421875 
Q 19.53125 -1.421875 13.0625 8.265625 
Q 6.59375 17.96875 6.59375 36.375 
Q 6.59375 54.828125 13.0625 64.515625 
Q 19.53125 74.21875 31.78125 74.21875 
z
" id="DejaVuSans-30"/>
      </defs>
      <g transform="translate(214.206332 455.598437)scale(0.1 -0.1)">
       <use xlink:href="#DejaVuSans-35"/>
       <use x="63.623047" xlink:href="#DejaVuSans-2e"/>
       <use x="95.410156" xlink:href="#DejaVuSans-30"/>
      </g>
     </g>
    </g>
    <g id="xtick_3">
     <g id="line2d_3">
      <g>
       <use style="stroke:#000000;stroke-width:0.8;" x="288.904306" xlink:href="#ma8c22396b6" y="441"/>
      </g>
     </g>
     <g id="text_3">
      <!-- 7.5 -->
      <defs>
       <path d="M 8.203125 72.90625 
L 55.078125 72.90625 
L 55.078125 68.703125 
L 28.609375 0 
L 18.3125 0 
L 43.21875 64.59375 
L 8.203125 64.59375 
z
" id="DejaVuSans-37"/>
      </defs>
      <g transform="translate(280.952744 455.598437)scale(0.1 -0.1)">
       <use xlink:href="#DejaVuSans-37"/>
       <use x="63.623047" xlink:href="#DejaVuSans-2e"/>
       <use x="95.410156" xlink:href="#DejaVuSans-35"/>
      </g>
     </g>
    </g>
    <g id="xtick_4">
     <g id="line2d_4">
      <g>
       <use style="stroke:#000000;stroke-width:0.8;" x="355.650718" xlink:href="#ma8c22396b6" y="441"/>
      </g>
     </g>
     <g id="text_4">
      <!-- 10.0 -->
      <defs>
       <path d="M 12.40625 8.296875 
L 28.515625 8.296875 
L 28.515625 63.921875 
L 10.984375 60.40625 
L 10.984375 69.390625 
L 28.421875 72.90625 
L 38.28125 72.90625 
L 38.28125 8.296875 
L 54.390625 8.296875 
L 54.390625 0 
L 12.40625 0 
z
" id="DejaVuSans-31"/>
      </defs>
      <g transform="translate(344.517905 455.598437)scale(0.1 -0.1)">
       <use xlink:href="#DejaVuSans-31"/>
       <use x="63.623047" xlink:href="#DejaVuSans-30"/>
       <use x="127.246094" xlink:href="#DejaVuSans-2e"/>
       <use x="159.033203" xlink:href="#DejaVuSans-30"/>
      </g>
     </g>
    </g>
    <g id="xtick_5">
     <g id="line2d_5">
      <g>
       <use style="stroke:#000000;stroke-width:0.8;" x="422.397129" xlink:href="#ma8c22396b6" y="441"/>
      </g>
     </g>
     <g id="text_5">
      <!-- 12.5 -->
      <g transform="translate(411.264317 455.598437)scale(0.1 -0.1)">
       <use xlink:href="#DejaVuSans-31"/>
       <use x="63.623047" xlink:href="#DejaVuSans-32"/>
       <use x="127.246094" xlink:href="#DejaVuSans-2e"/>
       <use x="159.033203" xlink:href="#DejaVuSans-35"/>
      </g>
     </g>
    </g>
    <g id="xtick_6">
     <g id="line2d_6">
      <g>
       <use style="stroke:#000000;stroke-width:0.8;" x="489.143541" xlink:href="#ma8c22396b6" y="441"/>
      </g>
     </g>
     <g id="text_6">
      <!-- 15.0 -->
      <g transform="translate(478.010728 455.598437)scale(0.1 -0.1)">
       <use xlink:href="#DejaVuSans-31"/>
       <use x="63.623047" xlink:href="#DejaVuSans-35"/>
       <use x="127.246094" xlink:href="#DejaVuSans-2e"/>
       <use x="159.033203" xlink:href="#DejaVuSans-30"/>
      </g>
     </g>
    </g>
    <g id="xtick_7">
     <g id="line2d_7">
      <g>
       <use style="stroke:#000000;stroke-width:0.8;" x="555.889952" xlink:href="#ma8c22396b6" y="441"/>
      </g>
     </g>
     <g id="text_7">
      <!-- 17.5 -->
      <g transform="translate(544.75714 455.598437)scale(0.1 -0.1)">
       <use xlink:href="#DejaVuSans-31"/>
       <use x="63.623047" xlink:href="#DejaVuSans-37"/>
       <use x="127.246094" xlink:href="#DejaVuSans-2e"/>
       <use x="159.033203" xlink:href="#DejaVuSans-35"/>
      </g>
     </g>
    </g>
    <g id="xtick_8">
     <g id="line2d_8">
      <g>
       <use style="stroke:#000000;stroke-width:0.8;" x="622.636364" xlink:href="#ma8c22396b6" y="441"/>
      </g>
     </g>
     <g id="text_8">
      <!-- 20.0 -->
      <g transform="translate(611.503551 455.598437)scale(0.1 -0.1)">
       <use xlink:href="#DejaVuSans-32"/>
       <use x="63.623047" xlink:href="#DejaVuSans-30"/>
       <use x="127.246094" xlink:href="#DejaVuSans-2e"/>
       <use x="159.033203" xlink:href="#DejaVuSans-30"/>
      </g>
     </g>
    </g>
    <g id="text_9">
     <!-- Number of transition steps -->
     <defs>
      <path d="M 9.8125 72.90625 
L 23.09375 72.90625 
L 55.421875 11.921875 
L 55.421875 72.90625 
L 64.984375 72.90625 
L 64.984375 0 
L 51.703125 0 
L 19.390625 60.984375 
L 19.390625 0 
L 9.8125 0 
z
" id="DejaVuSans-4e"/>
      <path d="M 8.5 21.578125 
L 8.5 54.6875 
L 17.484375 54.6875 
L 17.484375 21.921875 
Q 17.484375 14.15625 20.5 10.265625 
Q 23.53125 6.390625 29.59375 6.390625 
Q 36.859375 6.390625 41.078125 11.03125 
Q 45.3125 15.671875 45.3125 23.6875 
L 45.3125 54.6875 
L 54.296875 54.6875 
L 54.296875 0 
L 45.3125 0 
L 45.3125 8.40625 
Q 42.046875 3.421875 37.71875 1 
Q 33.40625 -1.421875 27.6875 -1.421875 
Q 18.265625 -1.421875 13.375 4.4375 
Q 8.5 10.296875 8.5 21.578125 
z
M 31.109375 56 
z
" id="DejaVuSans-75"/>
      <path d="M 52 44.1875 
Q 55.375 50.25 60.0625 53.125 
Q 64.75 56 71.09375 56 
Q 79.640625 56 84.28125 50.015625 
Q 88.921875 44.046875 88.921875 33.015625 
L 88.921875 0 
L 79.890625 0 
L 79.890625 32.71875 
Q 79.890625 40.578125 77.09375 44.375 
Q 74.3125 48.1875 68.609375 48.1875 
Q 61.625 48.1875 57.5625 43.546875 
Q 53.515625 38.921875 53.515625 30.90625 
L 53.515625 0 
L 44.484375 0 
L 44.484375 32.71875 
Q 44.484375 40.625 41.703125 44.40625 
Q 38.921875 48.1875 33.109375 48.1875 
Q 26.21875 48.1875 22.15625 43.53125 
Q 18.109375 38.875 18.109375 30.90625 
L 18.109375 0 
L 9.078125 0 
L 9.078125 54.6875 
L 18.109375 54.6875 
L 18.109375 46.1875 
Q 21.1875 51.21875 25.484375 53.609375 
Q 29.78125 56 35.6875 56 
Q 41.65625 56 45.828125 52.96875 
Q 50 49.953125 52 44.1875 
z
" id="DejaVuSans-6d"/>
      <path d="M 48.6875 27.296875 
Q 48.6875 37.203125 44.609375 42.84375 
Q 40.53125 48.484375 33.40625 48.484375 
Q 26.265625 48.484375 22.1875 42.84375 
Q 18.109375 37.203125 18.109375 27.296875 
Q 18.109375 17.390625 22.1875 11.75 
Q 26.265625 6.109375 33.40625 6.109375 
Q 40.53125 6.109375 44.609375 11.75 
Q 48.6875 17.390625 48.6875 27.296875 
z
M 18.109375 46.390625 
Q 20.953125 51.265625 25.265625 53.625 
Q 29.59375 56 35.59375 56 
Q 45.5625 56 51.78125 48.09375 
Q 58.015625 40.1875 58.015625 27.296875 
Q 58.015625 14.40625 51.78125 6.484375 
Q 45.5625 -1.421875 35.59375 -1.421875 
Q 29.59375 -1.421875 25.265625 0.953125 
Q 20.953125 3.328125 18.109375 8.203125 
L 18.109375 0 
L 9.078125 0 
L 9.078125 75.984375 
L 18.109375 75.984375 
z
" id="DejaVuSans-62"/>
      <path d="M 56.203125 29.59375 
L 56.203125 25.203125 
L 14.890625 25.203125 
Q 15.484375 15.921875 20.484375 11.0625 
Q 25.484375 6.203125 34.421875 6.203125 
Q 39.59375 6.203125 44.453125 7.46875 
Q 49.3125 8.734375 54.109375 11.28125 
L 54.109375 2.78125 
Q 49.265625 0.734375 44.1875 -0.34375 
Q 39.109375 -1.421875 33.890625 -1.421875 
Q 20.796875 -1.421875 13.15625 6.1875 
Q 5.515625 13.8125 5.515625 26.8125 
Q 5.515625 40.234375 12.765625 48.109375 
Q 20.015625 56 32.328125 56 
Q 43.359375 56 49.78125 48.890625 
Q 56.203125 41.796875 56.203125 29.59375 
z
M 47.21875 32.234375 
Q 47.125 39.59375 43.09375 43.984375 
Q 39.0625 48.390625 32.421875 48.390625 
Q 24.90625 48.390625 20.390625 44.140625 
Q 15.875 39.890625 15.1875 32.171875 
z
" id="DejaVuSans-65"/>
      <path d="M 41.109375 46.296875 
Q 39.59375 47.171875 37.8125 47.578125 
Q 36.03125 48 33.890625 48 
Q 26.265625 48 22.1875 43.046875 
Q 18.109375 38.09375 18.109375 28.8125 
L 18.109375 0 
L 9.078125 0 
L 9.078125 54.6875 
L 18.109375 54.6875 
L 18.109375 46.1875 
Q 20.953125 51.171875 25.484375 53.578125 
Q 30.03125 56 36.53125 56 
Q 37.453125 56 38.578125 55.875 
Q 39.703125 55.765625 41.0625 55.515625 
z
" id="DejaVuSans-72"/>
      <path id="DejaVuSans-20"/>
      <path d="M 30.609375 48.390625 
Q 23.390625 48.390625 19.1875 42.75 
Q 14.984375 37.109375 14.984375 27.296875 
Q 14.984375 17.484375 19.15625 11.84375 
Q 23.34375 6.203125 30.609375 6.203125 
Q 37.796875 6.203125 41.984375 11.859375 
Q 46.1875 17.53125 46.1875 27.296875 
Q 46.1875 37.015625 41.984375 42.703125 
Q 37.796875 48.390625 30.609375 48.390625 
z
M 30.609375 56 
Q 42.328125 56 49.015625 48.375 
Q 55.71875 40.765625 55.71875 27.296875 
Q 55.71875 13.875 49.015625 6.21875 
Q 42.328125 -1.421875 30.609375 -1.421875 
Q 18.84375 -1.421875 12.171875 6.21875 
Q 5.515625 13.875 5.515625 27.296875 
Q 5.515625 40.765625 12.171875 48.375 
Q 18.84375 56 30.609375 56 
z
" id="DejaVuSans-6f"/>
      <path d="M 37.109375 75.984375 
L 37.109375 68.5 
L 28.515625 68.5 
Q 23.6875 68.5 21.796875 66.546875 
Q 19.921875 64.59375 19.921875 59.515625 
L 19.921875 54.6875 
L 34.71875 54.6875 
L 34.71875 47.703125 
L 19.921875 47.703125 
L 19.921875 0 
L 10.890625 0 
L 10.890625 47.703125 
L 2.296875 47.703125 
L 2.296875 54.6875 
L 10.890625 54.6875 
L 10.890625 58.5 
Q 10.890625 67.625 15.140625 71.796875 
Q 19.390625 75.984375 28.609375 75.984375 
z
" id="DejaVuSans-66"/>
      <path d="M 18.3125 70.21875 
L 18.3125 54.6875 
L 36.8125 54.6875 
L 36.8125 47.703125 
L 18.3125 47.703125 
L 18.3125 18.015625 
Q 18.3125 11.328125 20.140625 9.421875 
Q 21.96875 7.515625 27.59375 7.515625 
L 36.8125 7.515625 
L 36.8125 0 
L 27.59375 0 
Q 17.1875 0 13.234375 3.875 
Q 9.28125 7.765625 9.28125 18.015625 
L 9.28125 47.703125 
L 2.6875 47.703125 
L 2.6875 54.6875 
L 9.28125 54.6875 
L 9.28125 70.21875 
z
" id="DejaVuSans-74"/>
      <path d="M 34.28125 27.484375 
Q 23.390625 27.484375 19.1875 25 
Q 14.984375 22.515625 14.984375 16.5 
Q 14.984375 11.71875 18.140625 8.90625 
Q 21.296875 6.109375 26.703125 6.109375 
Q 34.1875 6.109375 38.703125 11.40625 
Q 43.21875 16.703125 43.21875 25.484375 
L 43.21875 27.484375 
z
M 52.203125 31.203125 
L 52.203125 0 
L 43.21875 0 
L 43.21875 8.296875 
Q 40.140625 3.328125 35.546875 0.953125 
Q 30.953125 -1.421875 24.3125 -1.421875 
Q 15.921875 -1.421875 10.953125 3.296875 
Q 6 8.015625 6 15.921875 
Q 6 25.140625 12.171875 29.828125 
Q 18.359375 34.515625 30.609375 34.515625 
L 43.21875 34.515625 
L 43.21875 35.40625 
Q 43.21875 41.609375 39.140625 45 
Q 35.0625 48.390625 27.6875 48.390625 
Q 23 48.390625 18.546875 47.265625 
Q 14.109375 46.140625 10.015625 43.890625 
L 10.015625 52.203125 
Q 14.9375 54.109375 19.578125 55.046875 
Q 24.21875 56 28.609375 56 
Q 40.484375 56 46.34375 49.84375 
Q 52.203125 43.703125 52.203125 31.203125 
z
" id="DejaVuSans-61"/>
      <path d="M 54.890625 33.015625 
L 54.890625 0 
L 45.90625 0 
L 45.90625 32.71875 
Q 45.90625 40.484375 42.875 44.328125 
Q 39.84375 48.1875 33.796875 48.1875 
Q 26.515625 48.1875 22.3125 43.546875 
Q 18.109375 38.921875 18.109375 30.90625 
L 18.109375 0 
L 9.078125 0 
L 9.078125 54.6875 
L 18.109375 54.6875 
L 18.109375 46.1875 
Q 21.34375 51.125 25.703125 53.5625 
Q 30.078125 56 35.796875 56 
Q 45.21875 56 50.046875 50.171875 
Q 54.890625 44.34375 54.890625 33.015625 
z
" id="DejaVuSans-6e"/>
      <path d="M 44.28125 53.078125 
L 44.28125 44.578125 
Q 40.484375 46.53125 36.375 47.5 
Q 32.28125 48.484375 27.875 48.484375 
Q 21.1875 48.484375 17.84375 46.4375 
Q 14.5 44.390625 14.5 40.28125 
Q 14.5 37.15625 16.890625 35.375 
Q 19.28125 33.59375 26.515625 31.984375 
L 29.59375 31.296875 
Q 39.15625 29.25 43.1875 25.515625 
Q 47.21875 21.78125 47.21875 15.09375 
Q 47.21875 7.46875 41.1875 3.015625 
Q 35.15625 -1.421875 24.609375 -1.421875 
Q 20.21875 -1.421875 15.453125 -0.5625 
Q 10.6875 0.296875 5.421875 2 
L 5.421875 11.28125 
Q 10.40625 8.6875 15.234375 7.390625 
Q 20.0625 6.109375 24.8125 6.109375 
Q 31.15625 6.109375 34.5625 8.28125 
Q 37.984375 10.453125 37.984375 14.40625 
Q 37.984375 18.0625 35.515625 20.015625 
Q 33.0625 21.96875 24.703125 23.78125 
L 21.578125 24.515625 
Q 13.234375 26.265625 9.515625 29.90625 
Q 5.8125 33.546875 5.8125 39.890625 
Q 5.8125 47.609375 11.28125 51.796875 
Q 16.75 56 26.8125 56 
Q 31.78125 56 36.171875 55.265625 
Q 40.578125 54.546875 44.28125 53.078125 
z
" id="DejaVuSans-73"/>
      <path d="M 9.421875 54.6875 
L 18.40625 54.6875 
L 18.40625 0 
L 9.421875 0 
z
M 9.421875 75.984375 
L 18.40625 75.984375 
L 18.40625 64.59375 
L 9.421875 64.59375 
z
" id="DejaVuSans-69"/>
      <path d="M 18.109375 8.203125 
L 18.109375 -20.796875 
L 9.078125 -20.796875 
L 9.078125 54.6875 
L 18.109375 54.6875 
L 18.109375 46.390625 
Q 20.953125 51.265625 25.265625 53.625 
Q 29.59375 56 35.59375 56 
Q 45.5625 56 51.78125 48.09375 
Q 58.015625 40.1875 58.015625 27.296875 
Q 58.015625 14.40625 51.78125 6.484375 
Q 45.5625 -1.421875 35.59375 -1.421875 
Q 29.59375 -1.421875 25.265625 0.953125 
Q 20.953125 3.328125 18.109375 8.203125 
z
M 48.6875 27.296875 
Q 48.6875 37.203125 44.609375 42.84375 
Q 40.53125 48.484375 33.40625 48.484375 
Q 26.265625 48.484375 22.1875 42.84375 
Q 18.109375 37.203125 18.109375 27.296875 
Q 18.109375 17.390625 22.1875 11.75 
Q 26.265625 6.109375 33.40625 6.109375 
Q 40.53125 6.109375 44.609375 11.75 
Q 48.6875 17.390625 48.6875 27.296875 
z
" id="DejaVuSans-70"/>
     </defs>
     <g transform="translate(235.175 476.875)scale(0.2 -0.2)">
      <use xlink:href="#DejaVuSans-4e"/>
      <use x="74.804688" xlink:href="#DejaVuSans-75"/>
      <use x="138.183594" xlink:href="#DejaVuSans-6d"/>
      <use x="235.595703" xlink:href="#DejaVuSans-62"/>
      <use x="299.072266" xlink:href="#DejaVuSans-65"/>
      <use x="360.595703" xlink:href="#DejaVuSans-72"/>
      <use x="401.708984" xlink:href="#DejaVuSans-20"/>
      <use x="433.496094" xlink:href="#DejaVuSans-6f"/>
      <use x="494.677734" xlink:href="#DejaVuSans-66"/>
      <use x="529.882812" xlink:href="#DejaVuSans-20"/>
      <use x="561.669922" xlink:href="#DejaVuSans-74"/>
      <use x="600.878906" xlink:href="#DejaVuSans-72"/>
      <use x="641.992188" xlink:href="#DejaVuSans-61"/>
      <use x="703.271484" xlink:href="#DejaVuSans-6e"/>
      <use x="766.650391" xlink:href="#DejaVuSans-73"/>
      <use x="818.75" xlink:href="#DejaVuSans-69"/>
      <use x="846.533203" xlink:href="#DejaVuSans-74"/>
      <use x="885.742188" xlink:href="#DejaVuSans-69"/>
      <use x="913.525391" xlink:href="#DejaVuSans-6f"/>
      <use x="974.707031" xlink:href="#DejaVuSans-6e"/>
      <use x="1038.085938" xlink:href="#DejaVuSans-20"/>
      <use x="1069.873047" xlink:href="#DejaVuSans-73"/>
      <use x="1121.972656" xlink:href="#DejaVuSans-74"/>
      <use x="1161.181641" xlink:href="#DejaVuSans-65"/>
      <use x="1222.705078" xlink:href="#DejaVuSans-70"/>
      <use x="1286.181641" xlink:href="#DejaVuSans-73"/>
     </g>
    </g>
   </g>
   <g id="matplotlib.axis_2">
    <g id="ytick_1">
     <g id="line2d_9">
      <defs>
       <path d="M 0 0 
L -3.5 0 
" id="mfe90448ca8" style="stroke:#000000;stroke-width:0.8;"/>
      </defs>
      <g>
       <use style="stroke:#000000;stroke-width:0.8;" x="90" xlink:href="#mfe90448ca8" y="424.157892"/>
      </g>
     </g>
     <g id="text_10">
      <!-- 0.0 -->
      <g transform="translate(67.096875 427.957111)scale(0.1 -0.1)">
       <use xlink:href="#DejaVuSans-30"/>
       <use x="63.623047" xlink:href="#DejaVuSans-2e"/>
       <use x="95.410156" xlink:href="#DejaVuSans-30"/>
      </g>
     </g>
    </g>
    <g id="ytick_2">
     <g id="line2d_10">
      <g>
       <use style="stroke:#000000;stroke-width:0.8;" x="90" xlink:href="#mfe90448ca8" y="360.730693"/>
      </g>
     </g>
     <g id="text_11">
      <!-- 0.1 -->
      <g transform="translate(67.096875 364.529912)scale(0.1 -0.1)">
       <use xlink:href="#DejaVuSans-30"/>
       <use x="63.623047" xlink:href="#DejaVuSans-2e"/>
       <use x="95.410156" xlink:href="#DejaVuSans-31"/>
      </g>
     </g>
    </g>
    <g id="ytick_3">
     <g id="line2d_11">
      <g>
       <use style="stroke:#000000;stroke-width:0.8;" x="90" xlink:href="#mfe90448ca8" y="297.303494"/>
      </g>
     </g>
     <g id="text_12">
      <!-- 0.2 -->
      <g transform="translate(67.096875 301.102713)scale(0.1 -0.1)">
       <use xlink:href="#DejaVuSans-30"/>
       <use x="63.623047" xlink:href="#DejaVuSans-2e"/>
       <use x="95.410156" xlink:href="#DejaVuSans-32"/>
      </g>
     </g>
    </g>
    <g id="ytick_4">
     <g id="line2d_12">
      <g>
       <use style="stroke:#000000;stroke-width:0.8;" x="90" xlink:href="#mfe90448ca8" y="233.876294"/>
      </g>
     </g>
     <g id="text_13">
      <!-- 0.3 -->
      <defs>
       <path d="M 40.578125 39.3125 
Q 47.65625 37.796875 51.625 33 
Q 55.609375 28.21875 55.609375 21.1875 
Q 55.609375 10.40625 48.1875 4.484375 
Q 40.765625 -1.421875 27.09375 -1.421875 
Q 22.515625 -1.421875 17.65625 -0.515625 
Q 12.796875 0.390625 7.625 2.203125 
L 7.625 11.71875 
Q 11.71875 9.328125 16.59375 8.109375 
Q 21.484375 6.890625 26.8125 6.890625 
Q 36.078125 6.890625 40.9375 10.546875 
Q 45.796875 14.203125 45.796875 21.1875 
Q 45.796875 27.640625 41.28125 31.265625 
Q 36.765625 34.90625 28.71875 34.90625 
L 20.21875 34.90625 
L 20.21875 43.015625 
L 29.109375 43.015625 
Q 36.375 43.015625 40.234375 45.921875 
Q 44.09375 48.828125 44.09375 54.296875 
Q 44.09375 59.90625 40.109375 62.90625 
Q 36.140625 65.921875 28.71875 65.921875 
Q 24.65625 65.921875 20.015625 65.03125 
Q 15.375 64.15625 9.8125 62.3125 
L 9.8125 71.09375 
Q 15.4375 72.65625 20.34375 73.4375 
Q 25.25 74.21875 29.59375 74.21875 
Q 40.828125 74.21875 47.359375 69.109375 
Q 53.90625 64.015625 53.90625 55.328125 
Q 53.90625 49.265625 50.4375 45.09375 
Q 46.96875 40.921875 40.578125 39.3125 
z
" id="DejaVuSans-33"/>
      </defs>
      <g transform="translate(67.096875 237.675513)scale(0.1 -0.1)">
       <use xlink:href="#DejaVuSans-30"/>
       <use x="63.623047" xlink:href="#DejaVuSans-2e"/>
       <use x="95.410156" xlink:href="#DejaVuSans-33"/>
      </g>
     </g>
    </g>
    <g id="ytick_5">
     <g id="line2d_13">
      <g>
       <use style="stroke:#000000;stroke-width:0.8;" x="90" xlink:href="#mfe90448ca8" y="170.449095"/>
      </g>
     </g>
     <g id="text_14">
      <!-- 0.4 -->
      <defs>
       <path d="M 37.796875 64.3125 
L 12.890625 25.390625 
L 37.796875 25.390625 
z
M 35.203125 72.90625 
L 47.609375 72.90625 
L 47.609375 25.390625 
L 58.015625 25.390625 
L 58.015625 17.1875 
L 47.609375 17.1875 
L 47.609375 0 
L 37.796875 0 
L 37.796875 17.1875 
L 4.890625 17.1875 
L 4.890625 26.703125 
z
" id="DejaVuSans-34"/>
      </defs>
      <g transform="translate(67.096875 174.248314)scale(0.1 -0.1)">
       <use xlink:href="#DejaVuSans-30"/>
       <use x="63.623047" xlink:href="#DejaVuSans-2e"/>
       <use x="95.410156" xlink:href="#DejaVuSans-34"/>
      </g>
     </g>
    </g>
    <g id="ytick_6">
     <g id="line2d_14">
      <g>
       <use style="stroke:#000000;stroke-width:0.8;" x="90" xlink:href="#mfe90448ca8" y="107.021896"/>
      </g>
     </g>
     <g id="text_15">
      <!-- 0.5 -->
      <g transform="translate(67.096875 110.821115)scale(0.1 -0.1)">
       <use xlink:href="#DejaVuSans-30"/>
       <use x="63.623047" xlink:href="#DejaVuSans-2e"/>
       <use x="95.410156" xlink:href="#DejaVuSans-35"/>
      </g>
     </g>
    </g>
    <g id="text_16">
     <!-- Log-loss of goal prediction -->
     <defs>
      <path d="M 9.8125 72.90625 
L 19.671875 72.90625 
L 19.671875 8.296875 
L 55.171875 8.296875 
L 55.171875 0 
L 9.8125 0 
z
" id="DejaVuSans-4c"/>
      <path d="M 45.40625 27.984375 
Q 45.40625 37.75 41.375 43.109375 
Q 37.359375 48.484375 30.078125 48.484375 
Q 22.859375 48.484375 18.828125 43.109375 
Q 14.796875 37.75 14.796875 27.984375 
Q 14.796875 18.265625 18.828125 12.890625 
Q 22.859375 7.515625 30.078125 7.515625 
Q 37.359375 7.515625 41.375 12.890625 
Q 45.40625 18.265625 45.40625 27.984375 
z
M 54.390625 6.78125 
Q 54.390625 -7.171875 48.1875 -13.984375 
Q 42 -20.796875 29.203125 -20.796875 
Q 24.46875 -20.796875 20.265625 -20.09375 
Q 16.0625 -19.390625 12.109375 -17.921875 
L 12.109375 -9.1875 
Q 16.0625 -11.328125 19.921875 -12.34375 
Q 23.78125 -13.375 27.78125 -13.375 
Q 36.625 -13.375 41.015625 -8.765625 
Q 45.40625 -4.15625 45.40625 5.171875 
L 45.40625 9.625 
Q 42.625 4.78125 38.28125 2.390625 
Q 33.9375 0 27.875 0 
Q 17.828125 0 11.671875 7.65625 
Q 5.515625 15.328125 5.515625 27.984375 
Q 5.515625 40.671875 11.671875 48.328125 
Q 17.828125 56 27.875 56 
Q 33.9375 56 38.28125 53.609375 
Q 42.625 51.21875 45.40625 46.390625 
L 45.40625 54.6875 
L 54.390625 54.6875 
z
" id="DejaVuSans-67"/>
      <path d="M 4.890625 31.390625 
L 31.203125 31.390625 
L 31.203125 23.390625 
L 4.890625 23.390625 
z
" id="DejaVuSans-2d"/>
      <path d="M 9.421875 75.984375 
L 18.40625 75.984375 
L 18.40625 0 
L 9.421875 0 
z
" id="DejaVuSans-6c"/>
      <path d="M 45.40625 46.390625 
L 45.40625 75.984375 
L 54.390625 75.984375 
L 54.390625 0 
L 45.40625 0 
L 45.40625 8.203125 
Q 42.578125 3.328125 38.25 0.953125 
Q 33.9375 -1.421875 27.875 -1.421875 
Q 17.96875 -1.421875 11.734375 6.484375 
Q 5.515625 14.40625 5.515625 27.296875 
Q 5.515625 40.1875 11.734375 48.09375 
Q 17.96875 56 27.875 56 
Q 33.9375 56 38.25 53.625 
Q 42.578125 51.265625 45.40625 46.390625 
z
M 14.796875 27.296875 
Q 14.796875 17.390625 18.875 11.75 
Q 22.953125 6.109375 30.078125 6.109375 
Q 37.203125 6.109375 41.296875 11.75 
Q 45.40625 17.390625 45.40625 27.296875 
Q 45.40625 37.203125 41.296875 42.84375 
Q 37.203125 48.484375 30.078125 48.484375 
Q 22.953125 48.484375 18.875 42.84375 
Q 14.796875 37.203125 14.796875 27.296875 
z
" id="DejaVuSans-64"/>
      <path d="M 48.78125 52.59375 
L 48.78125 44.1875 
Q 44.96875 46.296875 41.140625 47.34375 
Q 37.3125 48.390625 33.40625 48.390625 
Q 24.65625 48.390625 19.8125 42.84375 
Q 14.984375 37.3125 14.984375 27.296875 
Q 14.984375 17.28125 19.8125 11.734375 
Q 24.65625 6.203125 33.40625 6.203125 
Q 37.3125 6.203125 41.140625 7.25 
Q 44.96875 8.296875 48.78125 10.40625 
L 48.78125 2.09375 
Q 45.015625 0.34375 40.984375 -0.53125 
Q 36.96875 -1.421875 32.421875 -1.421875 
Q 20.0625 -1.421875 12.78125 6.34375 
Q 5.515625 14.109375 5.515625 27.296875 
Q 5.515625 40.671875 12.859375 48.328125 
Q 20.21875 56 33.015625 56 
Q 37.15625 56 41.109375 55.140625 
Q 45.0625 54.296875 48.78125 52.59375 
z
" id="DejaVuSans-63"/>
     </defs>
     <g transform="translate(58.9375 382.636875)rotate(-90)scale(0.2 -0.2)">
      <use xlink:href="#DejaVuSans-4c"/>
      <use x="55.697266" xlink:href="#DejaVuSans-6f"/>
      <use x="116.878906" xlink:href="#DejaVuSans-67"/>
      <use x="180.355469" xlink:href="#DejaVuSans-2d"/>
      <use x="216.439453" xlink:href="#DejaVuSans-6c"/>
      <use x="244.222656" xlink:href="#DejaVuSans-6f"/>
      <use x="305.404297" xlink:href="#DejaVuSans-73"/>
      <use x="357.503906" xlink:href="#DejaVuSans-73"/>
      <use x="409.603516" xlink:href="#DejaVuSans-20"/>
      <use x="441.390625" xlink:href="#DejaVuSans-6f"/>
      <use x="502.572266" xlink:href="#DejaVuSans-66"/>
      <use x="537.777344" xlink:href="#DejaVuSans-20"/>
      <use x="569.564453" xlink:href="#DejaVuSans-67"/>
      <use x="633.041016" xlink:href="#DejaVuSans-6f"/>
      <use x="694.222656" xlink:href="#DejaVuSans-61"/>
      <use x="755.501953" xlink:href="#DejaVuSans-6c"/>
      <use x="783.285156" xlink:href="#DejaVuSans-20"/>
      <use x="815.072266" xlink:href="#DejaVuSans-70"/>
      <use x="878.548828" xlink:href="#DejaVuSans-72"/>
      <use x="919.630859" xlink:href="#DejaVuSans-65"/>
      <use x="981.154297" xlink:href="#DejaVuSans-64"/>
      <use x="1044.630859" xlink:href="#DejaVuSans-69"/>
      <use x="1072.414062" xlink:href="#DejaVuSans-63"/>
      <use x="1127.394531" xlink:href="#DejaVuSans-74"/>
      <use x="1166.603516" xlink:href="#DejaVuSans-69"/>
      <use x="1194.386719" xlink:href="#DejaVuSans-6f"/>
      <use x="1255.568359" xlink:href="#DejaVuSans-6e"/>
     </g>
    </g>
   </g>
   <g id="line2d_15">
    <path clip-path="url(#p849152b685)" d="M 115.363636 418.890833 
L 142.062201 420.485139 
L 168.760766 417.078914 
L 195.45933 337.779418 
L 222.157895 311.49314 
L 248.856459 295.623741 
L 275.555024 291.562563 
L 302.253589 300.542504 
L 328.952153 293.98451 
L 355.650718 296.119883 
L 382.349282 293.930544 
L 409.047847 271.638909 
L 435.746411 262.19638 
L 462.444976 291.279027 
L 489.143541 280.432078 
L 515.842105 265.684991 
L 542.54067 258.039584 
L 569.239234 276.503212 
L 595.937799 242.110426 
L 622.636364 251.192955 
" style="fill:none;stroke:#1f77b4;stroke-linecap:square;stroke-width:3;"/>
    <defs>
     <path d="M 0 5 
C 1.326016 5 2.597899 4.473168 3.535534 3.535534 
C 4.473168 2.597899 5 1.326016 5 0 
C 5 -1.326016 4.473168 -2.597899 3.535534 -3.535534 
C 2.597899 -4.473168 1.326016 -5 0 -5 
C -1.326016 -5 -2.597899 -4.473168 -3.535534 -3.535534 
C -4.473168 -2.597899 -5 -1.326016 -5 0 
C -5 1.326016 -4.473168 2.597899 -3.535534 3.535534 
C -2.597899 4.473168 -1.326016 5 0 5 
z
" id="m280069ddfc" style="stroke:#1f77b4;"/>
    </defs>
    <g clip-path="url(#p849152b685)">
     <use style="fill:#1f77b4;stroke:#1f77b4;" x="115.363636" xlink:href="#m280069ddfc" y="418.890833"/>
     <use style="fill:#1f77b4;stroke:#1f77b4;" x="142.062201" xlink:href="#m280069ddfc" y="420.485139"/>
     <use style="fill:#1f77b4;stroke:#1f77b4;" x="168.760766" xlink:href="#m280069ddfc" y="417.078914"/>
     <use style="fill:#1f77b4;stroke:#1f77b4;" x="195.45933" xlink:href="#m280069ddfc" y="337.779418"/>
     <use style="fill:#1f77b4;stroke:#1f77b4;" x="222.157895" xlink:href="#m280069ddfc" y="311.49314"/>
     <use style="fill:#1f77b4;stroke:#1f77b4;" x="248.856459" xlink:href="#m280069ddfc" y="295.623741"/>
     <use style="fill:#1f77b4;stroke:#1f77b4;" x="275.555024" xlink:href="#m280069ddfc" y="291.562563"/>
     <use style="fill:#1f77b4;stroke:#1f77b4;" x="302.253589" xlink:href="#m280069ddfc" y="300.542504"/>
     <use style="fill:#1f77b4;stroke:#1f77b4;" x="328.952153" xlink:href="#m280069ddfc" y="293.98451"/>
     <use style="fill:#1f77b4;stroke:#1f77b4;" x="355.650718" xlink:href="#m280069ddfc" y="296.119883"/>
     <use style="fill:#1f77b4;stroke:#1f77b4;" x="382.349282" xlink:href="#m280069ddfc" y="293.930544"/>
     <use style="fill:#1f77b4;stroke:#1f77b4;" x="409.047847" xlink:href="#m280069ddfc" y="271.638909"/>
     <use style="fill:#1f77b4;stroke:#1f77b4;" x="435.746411" xlink:href="#m280069ddfc" y="262.19638"/>
     <use style="fill:#1f77b4;stroke:#1f77b4;" x="462.444976" xlink:href="#m280069ddfc" y="291.279027"/>
     <use style="fill:#1f77b4;stroke:#1f77b4;" x="489.143541" xlink:href="#m280069ddfc" y="280.432078"/>
     <use style="fill:#1f77b4;stroke:#1f77b4;" x="515.842105" xlink:href="#m280069ddfc" y="265.684991"/>
     <use style="fill:#1f77b4;stroke:#1f77b4;" x="542.54067" xlink:href="#m280069ddfc" y="258.039584"/>
     <use style="fill:#1f77b4;stroke:#1f77b4;" x="569.239234" xlink:href="#m280069ddfc" y="276.503212"/>
     <use style="fill:#1f77b4;stroke:#1f77b4;" x="595.937799" xlink:href="#m280069ddfc" y="242.110426"/>
     <use style="fill:#1f77b4;stroke:#1f77b4;" x="622.636364" xlink:href="#m280069ddfc" y="251.192955"/>
    </g>
   </g>
   <g id="line2d_16">
    <path clip-path="url(#p849152b685)" d="M 115.363636 407.351116 
L 142.062201 418.577998 
L 168.760766 416.920019 
L 195.45933 416.771182 
L 222.157895 420.405886 
L 248.856459 417.344869 
L 275.555024 416.087844 
L 302.253589 417.50162 
L 328.952153 410.334128 
L 355.650718 414.60235 
L 382.349282 408.009217 
L 409.047847 409.972708 
L 435.746411 400.159324 
L 462.444976 404.132206 
L 489.143541 388.976884 
L 515.842105 385.465004 
L 542.54067 371.362327 
L 569.239234 377.141775 
L 595.937799 369.830315 
L 622.636364 362.603022 
" style="fill:none;stroke:#ff7f0e;stroke-linecap:square;stroke-width:3;"/>
    <defs>
     <path d="M 0 5 
C 1.326016 5 2.597899 4.473168 3.535534 3.535534 
C 4.473168 2.597899 5 1.326016 5 0 
C 5 -1.326016 4.473168 -2.597899 3.535534 -3.535534 
C 2.597899 -4.473168 1.326016 -5 0 -5 
C -1.326016 -5 -2.597899 -4.473168 -3.535534 -3.535534 
C -4.473168 -2.597899 -5 -1.326016 -5 0 
C -5 1.326016 -4.473168 2.597899 -3.535534 3.535534 
C -2.597899 4.473168 -1.326016 5 0 5 
z
" id="mb67943559d" style="stroke:#ff7f0e;"/>
    </defs>
    <g clip-path="url(#p849152b685)">
     <use style="fill:#ff7f0e;stroke:#ff7f0e;" x="115.363636" xlink:href="#mb67943559d" y="407.351116"/>
     <use style="fill:#ff7f0e;stroke:#ff7f0e;" x="142.062201" xlink:href="#mb67943559d" y="418.577998"/>
     <use style="fill:#ff7f0e;stroke:#ff7f0e;" x="168.760766" xlink:href="#mb67943559d" y="416.920019"/>
     <use style="fill:#ff7f0e;stroke:#ff7f0e;" x="195.45933" xlink:href="#mb67943559d" y="416.771182"/>
     <use style="fill:#ff7f0e;stroke:#ff7f0e;" x="222.157895" xlink:href="#mb67943559d" y="420.405886"/>
     <use style="fill:#ff7f0e;stroke:#ff7f0e;" x="248.856459" xlink:href="#mb67943559d" y="417.344869"/>
     <use style="fill:#ff7f0e;stroke:#ff7f0e;" x="275.555024" xlink:href="#mb67943559d" y="416.087844"/>
     <use style="fill:#ff7f0e;stroke:#ff7f0e;" x="302.253589" xlink:href="#mb67943559d" y="417.50162"/>
     <use style="fill:#ff7f0e;stroke:#ff7f0e;" x="328.952153" xlink:href="#mb67943559d" y="410.334128"/>
     <use style="fill:#ff7f0e;stroke:#ff7f0e;" x="355.650718" xlink:href="#mb67943559d" y="414.60235"/>
     <use style="fill:#ff7f0e;stroke:#ff7f0e;" x="382.349282" xlink:href="#mb67943559d" y="408.009217"/>
     <use style="fill:#ff7f0e;stroke:#ff7f0e;" x="409.047847" xlink:href="#mb67943559d" y="409.972708"/>
     <use style="fill:#ff7f0e;stroke:#ff7f0e;" x="435.746411" xlink:href="#mb67943559d" y="400.159324"/>
     <use style="fill:#ff7f0e;stroke:#ff7f0e;" x="462.444976" xlink:href="#mb67943559d" y="404.132206"/>
     <use style="fill:#ff7f0e;stroke:#ff7f0e;" x="489.143541" xlink:href="#mb67943559d" y="388.976884"/>
     <use style="fill:#ff7f0e;stroke:#ff7f0e;" x="515.842105" xlink:href="#mb67943559d" y="385.465004"/>
     <use style="fill:#ff7f0e;stroke:#ff7f0e;" x="542.54067" xlink:href="#mb67943559d" y="371.362327"/>
     <use style="fill:#ff7f0e;stroke:#ff7f0e;" x="569.239234" xlink:href="#mb67943559d" y="377.141775"/>
     <use style="fill:#ff7f0e;stroke:#ff7f0e;" x="595.937799" xlink:href="#mb67943559d" y="369.830315"/>
     <use style="fill:#ff7f0e;stroke:#ff7f0e;" x="622.636364" xlink:href="#mb67943559d" y="362.603022"/>
    </g>
   </g>
   <g id="line2d_17">
    <path clip-path="url(#p849152b685)" d="M 115.363636 413.379092 
L 142.062201 125.713346 
L 168.760766 128.71987 
L 195.45933 86.881845 
L 222.157895 77.776364 
L 248.856459 116.870081 
L 275.555024 122.876714 
L 302.253589 125.909265 
L 328.952153 160.359419 
L 355.650718 179.056627 
L 382.349282 206.126902 
L 409.047847 236.271649 
L 435.746411 200.667036 
L 462.444976 197.976773 
L 489.143541 255.318936 
L 515.842105 252.13507 
L 542.54067 260.816689 
L 569.239234 259.591502 
L 595.937799 258.79216 
L 622.636364 259.238929 
" style="fill:none;stroke:#2ca02c;stroke-linecap:square;stroke-width:3;"/>
    <defs>
     <path d="M 0 5 
C 1.326016 5 2.597899 4.473168 3.535534 3.535534 
C 4.473168 2.597899 5 1.326016 5 0 
C 5 -1.326016 4.473168 -2.597899 3.535534 -3.535534 
C 2.597899 -4.473168 1.326016 -5 0 -5 
C -1.326016 -5 -2.597899 -4.473168 -3.535534 -3.535534 
C -4.473168 -2.597899 -5 -1.326016 -5 0 
C -5 1.326016 -4.473168 2.597899 -3.535534 3.535534 
C -2.597899 4.473168 -1.326016 5 0 5 
z
" id="m9f34ff947a" style="stroke:#2ca02c;"/>
    </defs>
    <g clip-path="url(#p849152b685)">
     <use style="fill:#2ca02c;stroke:#2ca02c;" x="115.363636" xlink:href="#m9f34ff947a" y="413.379092"/>
     <use style="fill:#2ca02c;stroke:#2ca02c;" x="142.062201" xlink:href="#m9f34ff947a" y="125.713346"/>
     <use style="fill:#2ca02c;stroke:#2ca02c;" x="168.760766" xlink:href="#m9f34ff947a" y="128.71987"/>
     <use style="fill:#2ca02c;stroke:#2ca02c;" x="195.45933" xlink:href="#m9f34ff947a" y="86.881845"/>
     <use style="fill:#2ca02c;stroke:#2ca02c;" x="222.157895" xlink:href="#m9f34ff947a" y="77.776364"/>
     <use style="fill:#2ca02c;stroke:#2ca02c;" x="248.856459" xlink:href="#m9f34ff947a" y="116.870081"/>
     <use style="fill:#2ca02c;stroke:#2ca02c;" x="275.555024" xlink:href="#m9f34ff947a" y="122.876714"/>
     <use style="fill:#2ca02c;stroke:#2ca02c;" x="302.253589" xlink:href="#m9f34ff947a" y="125.909265"/>
     <use style="fill:#2ca02c;stroke:#2ca02c;" x="328.952153" xlink:href="#m9f34ff947a" y="160.359419"/>
     <use style="fill:#2ca02c;stroke:#2ca02c;" x="355.650718" xlink:href="#m9f34ff947a" y="179.056627"/>
     <use style="fill:#2ca02c;stroke:#2ca02c;" x="382.349282" xlink:href="#m9f34ff947a" y="206.126902"/>
     <use style="fill:#2ca02c;stroke:#2ca02c;" x="409.047847" xlink:href="#m9f34ff947a" y="236.271649"/>
     <use style="fill:#2ca02c;stroke:#2ca02c;" x="435.746411" xlink:href="#m9f34ff947a" y="200.667036"/>
     <use style="fill:#2ca02c;stroke:#2ca02c;" x="462.444976" xlink:href="#m9f34ff947a" y="197.976773"/>
     <use style="fill:#2ca02c;stroke:#2ca02c;" x="489.143541" xlink:href="#m9f34ff947a" y="255.318936"/>
     <use style="fill:#2ca02c;stroke:#2ca02c;" x="515.842105" xlink:href="#m9f34ff947a" y="252.13507"/>
     <use style="fill:#2ca02c;stroke:#2ca02c;" x="542.54067" xlink:href="#m9f34ff947a" y="260.816689"/>
     <use style="fill:#2ca02c;stroke:#2ca02c;" x="569.239234" xlink:href="#m9f34ff947a" y="259.591502"/>
     <use style="fill:#2ca02c;stroke:#2ca02c;" x="595.937799" xlink:href="#m9f34ff947a" y="258.79216"/>
     <use style="fill:#2ca02c;stroke:#2ca02c;" x="622.636364" xlink:href="#m9f34ff947a" y="259.238929"/>
    </g>
   </g>
   <g id="line2d_18">
    <path clip-path="url(#p849152b685)" d="M 115.363636 423.016835 
L 142.062201 416.51311 
L 168.760766 419.599544 
L 195.45933 416.077541 
L 222.157895 397.645373 
L 248.856459 353.38689 
L 275.555024 335.159445 
L 302.253589 317.123889 
L 328.952153 291.061656 
L 355.650718 286.349732 
L 382.349282 262.366694 
L 409.047847 247.388155 
L 435.746411 226.36025 
L 462.444976 207.98556 
L 489.143541 209.547619 
L 515.842105 189.619765 
L 542.54067 161.93413 
L 569.239234 147.780237 
L 595.937799 164.27884 
L 622.636364 155.127246 
" style="fill:none;stroke:#d62728;stroke-linecap:square;stroke-width:3;"/>
    <defs>
     <path d="M 0 5 
C 1.326016 5 2.597899 4.473168 3.535534 3.535534 
C 4.473168 2.597899 5 1.326016 5 0 
C 5 -1.326016 4.473168 -2.597899 3.535534 -3.535534 
C 2.597899 -4.473168 1.326016 -5 0 -5 
C -1.326016 -5 -2.597899 -4.473168 -3.535534 -3.535534 
C -4.473168 -2.597899 -5 -1.326016 -5 0 
C -5 1.326016 -4.473168 2.597899 -3.535534 3.535534 
C -2.597899 4.473168 -1.326016 5 0 5 
z
" id="mc7f1d30113" style="stroke:#d62728;"/>
    </defs>
    <g clip-path="url(#p849152b685)">
     <use style="fill:#d62728;stroke:#d62728;" x="115.363636" xlink:href="#mc7f1d30113" y="423.016835"/>
     <use style="fill:#d62728;stroke:#d62728;" x="142.062201" xlink:href="#mc7f1d30113" y="416.51311"/>
     <use style="fill:#d62728;stroke:#d62728;" x="168.760766" xlink:href="#mc7f1d30113" y="419.599544"/>
     <use style="fill:#d62728;stroke:#d62728;" x="195.45933" xlink:href="#mc7f1d30113" y="416.077541"/>
     <use style="fill:#d62728;stroke:#d62728;" x="222.157895" xlink:href="#mc7f1d30113" y="397.645373"/>
     <use style="fill:#d62728;stroke:#d62728;" x="248.856459" xlink:href="#mc7f1d30113" y="353.38689"/>
     <use style="fill:#d62728;stroke:#d62728;" x="275.555024" xlink:href="#mc7f1d30113" y="335.159445"/>
     <use style="fill:#d62728;stroke:#d62728;" x="302.253589" xlink:href="#mc7f1d30113" y="317.123889"/>
     <use style="fill:#d62728;stroke:#d62728;" x="328.952153" xlink:href="#mc7f1d30113" y="291.061656"/>
     <use style="fill:#d62728;stroke:#d62728;" x="355.650718" xlink:href="#mc7f1d30113" y="286.349732"/>
     <use style="fill:#d62728;stroke:#d62728;" x="382.349282" xlink:href="#mc7f1d30113" y="262.366694"/>
     <use style="fill:#d62728;stroke:#d62728;" x="409.047847" xlink:href="#mc7f1d30113" y="247.388155"/>
     <use style="fill:#d62728;stroke:#d62728;" x="435.746411" xlink:href="#mc7f1d30113" y="226.36025"/>
     <use style="fill:#d62728;stroke:#d62728;" x="462.444976" xlink:href="#mc7f1d30113" y="207.98556"/>
     <use style="fill:#d62728;stroke:#d62728;" x="489.143541" xlink:href="#mc7f1d30113" y="209.547619"/>
     <use style="fill:#d62728;stroke:#d62728;" x="515.842105" xlink:href="#mc7f1d30113" y="189.619765"/>
     <use style="fill:#d62728;stroke:#d62728;" x="542.54067" xlink:href="#mc7f1d30113" y="161.93413"/>
     <use style="fill:#d62728;stroke:#d62728;" x="569.239234" xlink:href="#mc7f1d30113" y="147.780237"/>
     <use style="fill:#d62728;stroke:#d62728;" x="595.937799" xlink:href="#mc7f1d30113" y="164.27884"/>
     <use style="fill:#d62728;stroke:#d62728;" x="622.636364" xlink:href="#mc7f1d30113" y="155.127246"/>
    </g>
   </g>
   <g id="line2d_19">
    <path clip-path="url(#p849152b685)" d="M 115.363636 421.435885 
L 142.062201 423.703636 
L 168.760766 220.672741 
L 195.45933 146.612383 
L 222.157895 175.597451 
L 248.856459 213.964715 
L 275.555024 181.155062 
L 302.253589 196.337892 
L 328.952153 217.587616 
L 355.650718 225.177739 
L 382.349282 210.796144 
L 409.047847 242.582228 
L 435.746411 243.105248 
L 462.444976 239.386244 
L 489.143541 256.171385 
L 515.842105 273.526127 
L 542.54067 286.503537 
L 569.239234 285.0703 
L 595.937799 278.115091 
L 622.636364 256.538639 
" style="fill:none;stroke:#9467bd;stroke-linecap:square;stroke-width:3;"/>
    <defs>
     <path d="M 0 5 
C 1.326016 5 2.597899 4.473168 3.535534 3.535534 
C 4.473168 2.597899 5 1.326016 5 0 
C 5 -1.326016 4.473168 -2.597899 3.535534 -3.535534 
C 2.597899 -4.473168 1.326016 -5 0 -5 
C -1.326016 -5 -2.597899 -4.473168 -3.535534 -3.535534 
C -4.473168 -2.597899 -5 -1.326016 -5 0 
C -5 1.326016 -4.473168 2.597899 -3.535534 3.535534 
C -2.597899 4.473168 -1.326016 5 0 5 
z
" id="mf2f05347c1" style="stroke:#9467bd;"/>
    </defs>
    <g clip-path="url(#p849152b685)">
     <use style="fill:#9467bd;stroke:#9467bd;" x="115.363636" xlink:href="#mf2f05347c1" y="421.435885"/>
     <use style="fill:#9467bd;stroke:#9467bd;" x="142.062201" xlink:href="#mf2f05347c1" y="423.703636"/>
     <use style="fill:#9467bd;stroke:#9467bd;" x="168.760766" xlink:href="#mf2f05347c1" y="220.672741"/>
     <use style="fill:#9467bd;stroke:#9467bd;" x="195.45933" xlink:href="#mf2f05347c1" y="146.612383"/>
     <use style="fill:#9467bd;stroke:#9467bd;" x="222.157895" xlink:href="#mf2f05347c1" y="175.597451"/>
     <use style="fill:#9467bd;stroke:#9467bd;" x="248.856459" xlink:href="#mf2f05347c1" y="213.964715"/>
     <use style="fill:#9467bd;stroke:#9467bd;" x="275.555024" xlink:href="#mf2f05347c1" y="181.155062"/>
     <use style="fill:#9467bd;stroke:#9467bd;" x="302.253589" xlink:href="#mf2f05347c1" y="196.337892"/>
     <use style="fill:#9467bd;stroke:#9467bd;" x="328.952153" xlink:href="#mf2f05347c1" y="217.587616"/>
     <use style="fill:#9467bd;stroke:#9467bd;" x="355.650718" xlink:href="#mf2f05347c1" y="225.177739"/>
     <use style="fill:#9467bd;stroke:#9467bd;" x="382.349282" xlink:href="#mf2f05347c1" y="210.796144"/>
     <use style="fill:#9467bd;stroke:#9467bd;" x="409.047847" xlink:href="#mf2f05347c1" y="242.582228"/>
     <use style="fill:#9467bd;stroke:#9467bd;" x="435.746411" xlink:href="#mf2f05347c1" y="243.105248"/>
     <use style="fill:#9467bd;stroke:#9467bd;" x="462.444976" xlink:href="#mf2f05347c1" y="239.386244"/>
     <use style="fill:#9467bd;stroke:#9467bd;" x="489.143541" xlink:href="#mf2f05347c1" y="256.171385"/>
     <use style="fill:#9467bd;stroke:#9467bd;" x="515.842105" xlink:href="#mf2f05347c1" y="273.526127"/>
     <use style="fill:#9467bd;stroke:#9467bd;" x="542.54067" xlink:href="#mf2f05347c1" y="286.503537"/>
     <use style="fill:#9467bd;stroke:#9467bd;" x="569.239234" xlink:href="#mf2f05347c1" y="285.0703"/>
     <use style="fill:#9467bd;stroke:#9467bd;" x="595.937799" xlink:href="#mf2f05347c1" y="278.115091"/>
     <use style="fill:#9467bd;stroke:#9467bd;" x="622.636364" xlink:href="#mf2f05347c1" y="256.538639"/>
    </g>
   </g>
   <g id="line2d_20">
    <path clip-path="url(#p849152b685)" d="M 115.363636 419.441177 
L 142.062201 418.170624 
L 168.760766 416.459812 
L 195.45933 419.984359 
L 222.157895 418.843267 
L 248.856459 419.650607 
L 275.555024 418.056819 
L 302.253589 413.969765 
L 328.952153 401.126657 
L 355.650718 404.41279 
L 382.349282 397.85664 
L 409.047847 384.945944 
L 435.746411 371.59449 
L 462.444976 373.621829 
L 489.143541 354.777582 
L 515.842105 351.121857 
L 542.54067 338.263518 
L 569.239234 329.898219 
L 595.937799 335.329241 
L 622.636364 314.719207 
" style="fill:none;stroke:#8c564b;stroke-linecap:square;stroke-width:3;"/>
    <defs>
     <path d="M 0 5 
C 1.326016 5 2.597899 4.473168 3.535534 3.535534 
C 4.473168 2.597899 5 1.326016 5 0 
C 5 -1.326016 4.473168 -2.597899 3.535534 -3.535534 
C 2.597899 -4.473168 1.326016 -5 0 -5 
C -1.326016 -5 -2.597899 -4.473168 -3.535534 -3.535534 
C -4.473168 -2.597899 -5 -1.326016 -5 0 
C -5 1.326016 -4.473168 2.597899 -3.535534 3.535534 
C -2.597899 4.473168 -1.326016 5 0 5 
z
" id="mb68acf10ad" style="stroke:#8c564b;"/>
    </defs>
    <g clip-path="url(#p849152b685)">
     <use style="fill:#8c564b;stroke:#8c564b;" x="115.363636" xlink:href="#mb68acf10ad" y="419.441177"/>
     <use style="fill:#8c564b;stroke:#8c564b;" x="142.062201" xlink:href="#mb68acf10ad" y="418.170624"/>
     <use style="fill:#8c564b;stroke:#8c564b;" x="168.760766" xlink:href="#mb68acf10ad" y="416.459812"/>
     <use style="fill:#8c564b;stroke:#8c564b;" x="195.45933" xlink:href="#mb68acf10ad" y="419.984359"/>
     <use style="fill:#8c564b;stroke:#8c564b;" x="222.157895" xlink:href="#mb68acf10ad" y="418.843267"/>
     <use style="fill:#8c564b;stroke:#8c564b;" x="248.856459" xlink:href="#mb68acf10ad" y="419.650607"/>
     <use style="fill:#8c564b;stroke:#8c564b;" x="275.555024" xlink:href="#mb68acf10ad" y="418.056819"/>
     <use style="fill:#8c564b;stroke:#8c564b;" x="302.253589" xlink:href="#mb68acf10ad" y="413.969765"/>
     <use style="fill:#8c564b;stroke:#8c564b;" x="328.952153" xlink:href="#mb68acf10ad" y="401.126657"/>
     <use style="fill:#8c564b;stroke:#8c564b;" x="355.650718" xlink:href="#mb68acf10ad" y="404.41279"/>
     <use style="fill:#8c564b;stroke:#8c564b;" x="382.349282" xlink:href="#mb68acf10ad" y="397.85664"/>
     <use style="fill:#8c564b;stroke:#8c564b;" x="409.047847" xlink:href="#mb68acf10ad" y="384.945944"/>
     <use style="fill:#8c564b;stroke:#8c564b;" x="435.746411" xlink:href="#mb68acf10ad" y="371.59449"/>
     <use style="fill:#8c564b;stroke:#8c564b;" x="462.444976" xlink:href="#mb68acf10ad" y="373.621829"/>
     <use style="fill:#8c564b;stroke:#8c564b;" x="489.143541" xlink:href="#mb68acf10ad" y="354.777582"/>
     <use style="fill:#8c564b;stroke:#8c564b;" x="515.842105" xlink:href="#mb68acf10ad" y="351.121857"/>
     <use style="fill:#8c564b;stroke:#8c564b;" x="542.54067" xlink:href="#mb68acf10ad" y="338.263518"/>
     <use style="fill:#8c564b;stroke:#8c564b;" x="569.239234" xlink:href="#mb68acf10ad" y="329.898219"/>
     <use style="fill:#8c564b;stroke:#8c564b;" x="595.937799" xlink:href="#mb68acf10ad" y="335.329241"/>
     <use style="fill:#8c564b;stroke:#8c564b;" x="622.636364" xlink:href="#mb68acf10ad" y="314.719207"/>
    </g>
   </g>
   <g id="line2d_21">
    <path clip-path="url(#p849152b685)" d="M 115.363636 422.380614 
L 142.062201 415.413932 
L 168.760766 414.965466 
L 195.45933 420.323553 
L 222.157895 414.645732 
L 248.856459 413.95344 
L 275.555024 411.571916 
L 302.253589 400.559993 
L 328.952153 393.244534 
L 355.650718 370.057235 
L 382.349282 362.21795 
L 409.047847 337.072854 
L 435.746411 337.558577 
L 462.444976 321.453486 
L 489.143541 301.909542 
L 515.842105 297.673353 
L 542.54067 290.059328 
L 569.239234 288.948331 
L 595.937799 291.048196 
L 622.636364 267.758008 
" style="fill:none;stroke:#e377c2;stroke-linecap:square;stroke-width:3;"/>
    <defs>
     <path d="M 0 5 
C 1.326016 5 2.597899 4.473168 3.535534 3.535534 
C 4.473168 2.597899 5 1.326016 5 0 
C 5 -1.326016 4.473168 -2.597899 3.535534 -3.535534 
C 2.597899 -4.473168 1.326016 -5 0 -5 
C -1.326016 -5 -2.597899 -4.473168 -3.535534 -3.535534 
C -4.473168 -2.597899 -5 -1.326016 -5 0 
C -5 1.326016 -4.473168 2.597899 -3.535534 3.535534 
C -2.597899 4.473168 -1.326016 5 0 5 
z
" id="m1d415d26b8" style="stroke:#e377c2;"/>
    </defs>
    <g clip-path="url(#p849152b685)">
     <use style="fill:#e377c2;stroke:#e377c2;" x="115.363636" xlink:href="#m1d415d26b8" y="422.380614"/>
     <use style="fill:#e377c2;stroke:#e377c2;" x="142.062201" xlink:href="#m1d415d26b8" y="415.413932"/>
     <use style="fill:#e377c2;stroke:#e377c2;" x="168.760766" xlink:href="#m1d415d26b8" y="414.965466"/>
     <use style="fill:#e377c2;stroke:#e377c2;" x="195.45933" xlink:href="#m1d415d26b8" y="420.323553"/>
     <use style="fill:#e377c2;stroke:#e377c2;" x="222.157895" xlink:href="#m1d415d26b8" y="414.645732"/>
     <use style="fill:#e377c2;stroke:#e377c2;" x="248.856459" xlink:href="#m1d415d26b8" y="413.95344"/>
     <use style="fill:#e377c2;stroke:#e377c2;" x="275.555024" xlink:href="#m1d415d26b8" y="411.571916"/>
     <use style="fill:#e377c2;stroke:#e377c2;" x="302.253589" xlink:href="#m1d415d26b8" y="400.559993"/>
     <use style="fill:#e377c2;stroke:#e377c2;" x="328.952153" xlink:href="#m1d415d26b8" y="393.244534"/>
     <use style="fill:#e377c2;stroke:#e377c2;" x="355.650718" xlink:href="#m1d415d26b8" y="370.057235"/>
     <use style="fill:#e377c2;stroke:#e377c2;" x="382.349282" xlink:href="#m1d415d26b8" y="362.21795"/>
     <use style="fill:#e377c2;stroke:#e377c2;" x="409.047847" xlink:href="#m1d415d26b8" y="337.072854"/>
     <use style="fill:#e377c2;stroke:#e377c2;" x="435.746411" xlink:href="#m1d415d26b8" y="337.558577"/>
     <use style="fill:#e377c2;stroke:#e377c2;" x="462.444976" xlink:href="#m1d415d26b8" y="321.453486"/>
     <use style="fill:#e377c2;stroke:#e377c2;" x="489.143541" xlink:href="#m1d415d26b8" y="301.909542"/>
     <use style="fill:#e377c2;stroke:#e377c2;" x="515.842105" xlink:href="#m1d415d26b8" y="297.673353"/>
     <use style="fill:#e377c2;stroke:#e377c2;" x="542.54067" xlink:href="#m1d415d26b8" y="290.059328"/>
     <use style="fill:#e377c2;stroke:#e377c2;" x="569.239234" xlink:href="#m1d415d26b8" y="288.948331"/>
     <use style="fill:#e377c2;stroke:#e377c2;" x="595.937799" xlink:href="#m1d415d26b8" y="291.048196"/>
     <use style="fill:#e377c2;stroke:#e377c2;" x="622.636364" xlink:href="#m1d415d26b8" y="267.758008"/>
    </g>
   </g>
   <g id="line2d_22">
    <path clip-path="url(#p849152b685)" d="M 115.363636 415.209231 
L 142.062201 418.299361 
L 168.760766 417.667681 
L 195.45933 417.854698 
L 222.157895 414.516774 
L 248.856459 408.848196 
L 275.555024 391.576755 
L 302.253589 361.150249 
L 328.952153 344.921372 
L 355.650718 331.582748 
L 382.349282 318.116523 
L 409.047847 320.23911 
L 435.746411 313.007148 
L 462.444976 306.725743 
L 489.143541 300.736423 
L 515.842105 288.703275 
L 542.54067 270.855412 
L 569.239234 299.600045 
L 595.937799 291.355528 
L 622.636364 303.163229 
" style="fill:none;stroke:#7f7f7f;stroke-linecap:square;stroke-width:3;"/>
    <defs>
     <path d="M 0 5 
C 1.326016 5 2.597899 4.473168 3.535534 3.535534 
C 4.473168 2.597899 5 1.326016 5 0 
C 5 -1.326016 4.473168 -2.597899 3.535534 -3.535534 
C 2.597899 -4.473168 1.326016 -5 0 -5 
C -1.326016 -5 -2.597899 -4.473168 -3.535534 -3.535534 
C -4.473168 -2.597899 -5 -1.326016 -5 0 
C -5 1.326016 -4.473168 2.597899 -3.535534 3.535534 
C -2.597899 4.473168 -1.326016 5 0 5 
z
" id="m161d1566bb" style="stroke:#7f7f7f;"/>
    </defs>
    <g clip-path="url(#p849152b685)">
     <use style="fill:#7f7f7f;stroke:#7f7f7f;" x="115.363636" xlink:href="#m161d1566bb" y="415.209231"/>
     <use style="fill:#7f7f7f;stroke:#7f7f7f;" x="142.062201" xlink:href="#m161d1566bb" y="418.299361"/>
     <use style="fill:#7f7f7f;stroke:#7f7f7f;" x="168.760766" xlink:href="#m161d1566bb" y="417.667681"/>
     <use style="fill:#7f7f7f;stroke:#7f7f7f;" x="195.45933" xlink:href="#m161d1566bb" y="417.854698"/>
     <use style="fill:#7f7f7f;stroke:#7f7f7f;" x="222.157895" xlink:href="#m161d1566bb" y="414.516774"/>
     <use style="fill:#7f7f7f;stroke:#7f7f7f;" x="248.856459" xlink:href="#m161d1566bb" y="408.848196"/>
     <use style="fill:#7f7f7f;stroke:#7f7f7f;" x="275.555024" xlink:href="#m161d1566bb" y="391.576755"/>
     <use style="fill:#7f7f7f;stroke:#7f7f7f;" x="302.253589" xlink:href="#m161d1566bb" y="361.150249"/>
     <use style="fill:#7f7f7f;stroke:#7f7f7f;" x="328.952153" xlink:href="#m161d1566bb" y="344.921372"/>
     <use style="fill:#7f7f7f;stroke:#7f7f7f;" x="355.650718" xlink:href="#m161d1566bb" y="331.582748"/>
     <use style="fill:#7f7f7f;stroke:#7f7f7f;" x="382.349282" xlink:href="#m161d1566bb" y="318.116523"/>
     <use style="fill:#7f7f7f;stroke:#7f7f7f;" x="409.047847" xlink:href="#m161d1566bb" y="320.23911"/>
     <use style="fill:#7f7f7f;stroke:#7f7f7f;" x="435.746411" xlink:href="#m161d1566bb" y="313.007148"/>
     <use style="fill:#7f7f7f;stroke:#7f7f7f;" x="462.444976" xlink:href="#m161d1566bb" y="306.725743"/>
     <use style="fill:#7f7f7f;stroke:#7f7f7f;" x="489.143541" xlink:href="#m161d1566bb" y="300.736423"/>
     <use style="fill:#7f7f7f;stroke:#7f7f7f;" x="515.842105" xlink:href="#m161d1566bb" y="288.703275"/>
     <use style="fill:#7f7f7f;stroke:#7f7f7f;" x="542.54067" xlink:href="#m161d1566bb" y="270.855412"/>
     <use style="fill:#7f7f7f;stroke:#7f7f7f;" x="569.239234" xlink:href="#m161d1566bb" y="299.600045"/>
     <use style="fill:#7f7f7f;stroke:#7f7f7f;" x="595.937799" xlink:href="#m161d1566bb" y="291.355528"/>
     <use style="fill:#7f7f7f;stroke:#7f7f7f;" x="622.636364" xlink:href="#m161d1566bb" y="303.163229"/>
    </g>
   </g>
   <g id="patch_3">
    <path d="M 90 441 
L 90 60.48 
" style="fill:none;stroke:#000000;stroke-linecap:square;stroke-linejoin:miter;stroke-width:0.8;"/>
   </g>
   <g id="patch_4">
    <path d="M 648 441 
L 648 60.48 
" style="fill:none;stroke:#000000;stroke-linecap:square;stroke-linejoin:miter;stroke-width:0.8;"/>
   </g>
   <g id="patch_5">
    <path d="M 90 441 
L 648 441 
" style="fill:none;stroke:#000000;stroke-linecap:square;stroke-linejoin:miter;stroke-width:0.8;"/>
   </g>
   <g id="patch_6">
    <path d="M 90 60.48 
L 648 60.48 
" style="fill:none;stroke:#000000;stroke-linecap:square;stroke-linejoin:miter;stroke-width:0.8;"/>
   </g>
   <g id="legend_1">
    <g id="patch_7">
     <path d="M 100.5 341.05875 
L 190.490625 341.05875 
Q 193.490625 341.05875 193.490625 338.05875 
L 193.490625 163.42125 
Q 193.490625 160.42125 190.490625 160.42125 
L 100.5 160.42125 
Q 97.5 160.42125 97.5 163.42125 
L 97.5 338.05875 
Q 97.5 341.05875 100.5 341.05875 
z
" style="fill:#ffffff;opacity:0.8;stroke:#cccccc;stroke-linejoin:miter;"/>
    </g>
    <g id="line2d_23">
     <path d="M 103.5 172.568906 
L 133.5 172.568906 
" style="fill:none;stroke:#1f77b4;stroke-linecap:square;stroke-width:3;"/>
    </g>
    <g id="line2d_24">
     <g>
      <use style="fill:#1f77b4;stroke:#1f77b4;" x="118.5" xlink:href="#m280069ddfc" y="172.568906"/>
     </g>
    </g>
    <g id="text_17">
     <!-- 3step -->
     <g transform="translate(145.5 177.818906)scale(0.15 -0.15)">
      <use xlink:href="#DejaVuSans-33"/>
      <use x="63.623047" xlink:href="#DejaVuSans-73"/>
      <use x="115.722656" xlink:href="#DejaVuSans-74"/>
      <use x="154.931641" xlink:href="#DejaVuSans-65"/>
      <use x="216.455078" xlink:href="#DejaVuSans-70"/>
     </g>
    </g>
    <g id="line2d_25">
     <path d="M 103.5 194.586094 
L 133.5 194.586094 
" style="fill:none;stroke:#ff7f0e;stroke-linecap:square;stroke-width:3;"/>
    </g>
    <g id="line2d_26">
     <g>
      <use style="fill:#ff7f0e;stroke:#ff7f0e;" x="118.5" xlink:href="#mb67943559d" y="194.586094"/>
     </g>
    </g>
    <g id="text_18">
     <!-- 8step -->
     <defs>
      <path d="M 31.78125 34.625 
Q 24.75 34.625 20.71875 30.859375 
Q 16.703125 27.09375 16.703125 20.515625 
Q 16.703125 13.921875 20.71875 10.15625 
Q 24.75 6.390625 31.78125 6.390625 
Q 38.8125 6.390625 42.859375 10.171875 
Q 46.921875 13.96875 46.921875 20.515625 
Q 46.921875 27.09375 42.890625 30.859375 
Q 38.875 34.625 31.78125 34.625 
z
M 21.921875 38.8125 
Q 15.578125 40.375 12.03125 44.71875 
Q 8.5 49.078125 8.5 55.328125 
Q 8.5 64.0625 14.71875 69.140625 
Q 20.953125 74.21875 31.78125 74.21875 
Q 42.671875 74.21875 48.875 69.140625 
Q 55.078125 64.0625 55.078125 55.328125 
Q 55.078125 49.078125 51.53125 44.71875 
Q 48 40.375 41.703125 38.8125 
Q 48.828125 37.15625 52.796875 32.3125 
Q 56.78125 27.484375 56.78125 20.515625 
Q 56.78125 9.90625 50.3125 4.234375 
Q 43.84375 -1.421875 31.78125 -1.421875 
Q 19.734375 -1.421875 13.25 4.234375 
Q 6.78125 9.90625 6.78125 20.515625 
Q 6.78125 27.484375 10.78125 32.3125 
Q 14.796875 37.15625 21.921875 38.8125 
z
M 18.3125 54.390625 
Q 18.3125 48.734375 21.84375 45.5625 
Q 25.390625 42.390625 31.78125 42.390625 
Q 38.140625 42.390625 41.71875 45.5625 
Q 45.3125 48.734375 45.3125 54.390625 
Q 45.3125 60.0625 41.71875 63.234375 
Q 38.140625 66.40625 31.78125 66.40625 
Q 25.390625 66.40625 21.84375 63.234375 
Q 18.3125 60.0625 18.3125 54.390625 
z
" id="DejaVuSans-38"/>
     </defs>
     <g transform="translate(145.5 199.836094)scale(0.15 -0.15)">
      <use xlink:href="#DejaVuSans-38"/>
      <use x="63.623047" xlink:href="#DejaVuSans-73"/>
      <use x="115.722656" xlink:href="#DejaVuSans-74"/>
      <use x="154.931641" xlink:href="#DejaVuSans-65"/>
      <use x="216.455078" xlink:href="#DejaVuSans-70"/>
     </g>
    </g>
    <g id="line2d_27">
     <path d="M 103.5 216.603281 
L 133.5 216.603281 
" style="fill:none;stroke:#2ca02c;stroke-linecap:square;stroke-width:3;"/>
    </g>
    <g id="line2d_28">
     <g>
      <use style="fill:#2ca02c;stroke:#2ca02c;" x="118.5" xlink:href="#m9f34ff947a" y="216.603281"/>
     </g>
    </g>
    <g id="text_19">
     <!-- 1step -->
     <g transform="translate(145.5 221.853281)scale(0.15 -0.15)">
      <use xlink:href="#DejaVuSans-31"/>
      <use x="63.623047" xlink:href="#DejaVuSans-73"/>
      <use x="115.722656" xlink:href="#DejaVuSans-74"/>
      <use x="154.931641" xlink:href="#DejaVuSans-65"/>
      <use x="216.455078" xlink:href="#DejaVuSans-70"/>
     </g>
    </g>
    <g id="line2d_29">
     <path d="M 103.5 238.620469 
L 133.5 238.620469 
" style="fill:none;stroke:#d62728;stroke-linecap:square;stroke-width:3;"/>
    </g>
    <g id="line2d_30">
     <g>
      <use style="fill:#d62728;stroke:#d62728;" x="118.5" xlink:href="#mc7f1d30113" y="238.620469"/>
     </g>
    </g>
    <g id="text_20">
     <!-- 4step -->
     <g transform="translate(145.5 243.870469)scale(0.15 -0.15)">
      <use xlink:href="#DejaVuSans-34"/>
      <use x="63.623047" xlink:href="#DejaVuSans-73"/>
      <use x="115.722656" xlink:href="#DejaVuSans-74"/>
      <use x="154.931641" xlink:href="#DejaVuSans-65"/>
      <use x="216.455078" xlink:href="#DejaVuSans-70"/>
     </g>
    </g>
    <g id="line2d_31">
     <path d="M 103.5 260.637656 
L 133.5 260.637656 
" style="fill:none;stroke:#9467bd;stroke-linecap:square;stroke-width:3;"/>
    </g>
    <g id="line2d_32">
     <g>
      <use style="fill:#9467bd;stroke:#9467bd;" x="118.5" xlink:href="#mf2f05347c1" y="260.637656"/>
     </g>
    </g>
    <g id="text_21">
     <!-- 2step -->
     <g transform="translate(145.5 265.887656)scale(0.15 -0.15)">
      <use xlink:href="#DejaVuSans-32"/>
      <use x="63.623047" xlink:href="#DejaVuSans-73"/>
      <use x="115.722656" xlink:href="#DejaVuSans-74"/>
      <use x="154.931641" xlink:href="#DejaVuSans-65"/>
      <use x="216.455078" xlink:href="#DejaVuSans-70"/>
     </g>
    </g>
    <g id="line2d_33">
     <path d="M 103.5 282.654844 
L 133.5 282.654844 
" style="fill:none;stroke:#8c564b;stroke-linecap:square;stroke-width:3;"/>
    </g>
    <g id="line2d_34">
     <g>
      <use style="fill:#8c564b;stroke:#8c564b;" x="118.5" xlink:href="#mb68acf10ad" y="282.654844"/>
     </g>
    </g>
    <g id="text_22">
     <!-- 7step -->
     <g transform="translate(145.5 287.904844)scale(0.15 -0.15)">
      <use xlink:href="#DejaVuSans-37"/>
      <use x="63.623047" xlink:href="#DejaVuSans-73"/>
      <use x="115.722656" xlink:href="#DejaVuSans-74"/>
      <use x="154.931641" xlink:href="#DejaVuSans-65"/>
      <use x="216.455078" xlink:href="#DejaVuSans-70"/>
     </g>
    </g>
    <g id="line2d_35">
     <path d="M 103.5 304.672031 
L 133.5 304.672031 
" style="fill:none;stroke:#e377c2;stroke-linecap:square;stroke-width:3;"/>
    </g>
    <g id="line2d_36">
     <g>
      <use style="fill:#e377c2;stroke:#e377c2;" x="118.5" xlink:href="#m1d415d26b8" y="304.672031"/>
     </g>
    </g>
    <g id="text_23">
     <!-- 6step -->
     <defs>
      <path d="M 33.015625 40.375 
Q 26.375 40.375 22.484375 35.828125 
Q 18.609375 31.296875 18.609375 23.390625 
Q 18.609375 15.53125 22.484375 10.953125 
Q 26.375 6.390625 33.015625 6.390625 
Q 39.65625 6.390625 43.53125 10.953125 
Q 47.40625 15.53125 47.40625 23.390625 
Q 47.40625 31.296875 43.53125 35.828125 
Q 39.65625 40.375 33.015625 40.375 
z
M 52.59375 71.296875 
L 52.59375 62.3125 
Q 48.875 64.0625 45.09375 64.984375 
Q 41.3125 65.921875 37.59375 65.921875 
Q 27.828125 65.921875 22.671875 59.328125 
Q 17.53125 52.734375 16.796875 39.40625 
Q 19.671875 43.65625 24.015625 45.921875 
Q 28.375 48.1875 33.59375 48.1875 
Q 44.578125 48.1875 50.953125 41.515625 
Q 57.328125 34.859375 57.328125 23.390625 
Q 57.328125 12.15625 50.6875 5.359375 
Q 44.046875 -1.421875 33.015625 -1.421875 
Q 20.359375 -1.421875 13.671875 8.265625 
Q 6.984375 17.96875 6.984375 36.375 
Q 6.984375 53.65625 15.1875 63.9375 
Q 23.390625 74.21875 37.203125 74.21875 
Q 40.921875 74.21875 44.703125 73.484375 
Q 48.484375 72.75 52.59375 71.296875 
z
" id="DejaVuSans-36"/>
     </defs>
     <g transform="translate(145.5 309.922031)scale(0.15 -0.15)">
      <use xlink:href="#DejaVuSans-36"/>
      <use x="63.623047" xlink:href="#DejaVuSans-73"/>
      <use x="115.722656" xlink:href="#DejaVuSans-74"/>
      <use x="154.931641" xlink:href="#DejaVuSans-65"/>
      <use x="216.455078" xlink:href="#DejaVuSans-70"/>
     </g>
    </g>
    <g id="line2d_37">
     <path d="M 103.5 326.689219 
L 133.5 326.689219 
" style="fill:none;stroke:#7f7f7f;stroke-linecap:square;stroke-width:3;"/>
    </g>
    <g id="line2d_38">
     <g>
      <use style="fill:#7f7f7f;stroke:#7f7f7f;" x="118.5" xlink:href="#m161d1566bb" y="326.689219"/>
     </g>
    </g>
    <g id="text_24">
     <!-- 5step -->
     <g transform="translate(145.5 331.939219)scale(0.15 -0.15)">
      <use xlink:href="#DejaVuSans-35"/>
      <use x="63.623047" xlink:href="#DejaVuSans-73"/>
      <use x="115.722656" xlink:href="#DejaVuSans-74"/>
      <use x="154.931641" xlink:href="#DejaVuSans-65"/>
      <use x="216.455078" xlink:href="#DejaVuSans-70"/>
     </g>
    </g>
   </g>
  </g>
 </g>
 <defs>
  <clipPath id="p849152b685">
   <rect height="380.52" width="558" x="90" y="60.48"/>
  </clipPath>
 </defs>
</svg>
