<?xml version="1.0" encoding="utf-8" standalone="no"?>
<!DOCTYPE svg PUBLIC "-//W3C//DTD SVG 1.1//EN"
  "http://www.w3.org/Graphics/SVG/1.1/DTD/svg11.dtd">
<!-- Created with matplotlib (http://matplotlib.org/) -->
<svg height="504pt" version="1.1" viewBox="0 0 720 504" width="720pt" xmlns="http://www.w3.org/2000/svg" xmlns:xlink="http://www.w3.org/1999/xlink">
 <defs>
  <style type="text/css">
*{stroke-linecap:butt;stroke-linejoin:round;}
  </style>
 </defs>
 <g id="figure_1">
  <g id="patch_1">
   <path d="M 0 504 
L 720 504 
L 720 0 
L 0 0 
z
" style="fill:#ffffff;"/>
  </g>
  <g id="axes_1">
   <g id="patch_2">
    <path d="M 90 441 
L 648 441 
L 648 60.48 
L 90 60.48 
z
" style="fill:#ffffff;"/>
   </g>
   <g id="matplotlib.axis_1">
    <g id="xtick_1">
     <g id="line2d_1">
      <defs>
       <path d="M 0 0 
L 0 3.5 
" id="m2aec58db69" style="stroke:#000000;stroke-width:0.8;"/>
      </defs>
      <g>
       <use style="stroke:#000000;stroke-width:0.8;" x="149.181818" xlink:href="#m2aec58db69" y="441"/>
      </g>
     </g>
     <g id="text_1">
      <!-- 2 -->
      <defs>
       <path d="M 19.1875 8.296875 
L 53.609375 8.296875 
L 53.609375 0 
L 7.328125 0 
L 7.328125 8.296875 
Q 12.9375 14.109375 22.625 23.890625 
Q 32.328125 33.6875 34.8125 36.53125 
Q 39.546875 41.84375 41.421875 45.53125 
Q 43.3125 49.21875 43.3125 52.78125 
Q 43.3125 58.59375 39.234375 62.25 
Q 35.15625 65.921875 28.609375 65.921875 
Q 23.96875 65.921875 18.8125 64.3125 
Q 13.671875 62.703125 7.8125 59.421875 
L 7.8125 69.390625 
Q 13.765625 71.78125 18.9375 73 
Q 24.125 74.21875 28.421875 74.21875 
Q 39.75 74.21875 46.484375 68.546875 
Q 53.21875 62.890625 53.21875 53.421875 
Q 53.21875 48.921875 51.53125 44.890625 
Q 49.859375 40.875 45.40625 35.40625 
Q 44.1875 33.984375 37.640625 27.21875 
Q 31.109375 20.453125 19.1875 8.296875 
z
" id="DejaVuSans-32"/>
      </defs>
      <g transform="translate(146.000568 455.598437)scale(0.1 -0.1)">
       <use xlink:href="#DejaVuSans-32"/>
      </g>
     </g>
    </g>
    <g id="xtick_2">
     <g id="line2d_2">
      <g>
       <use style="stroke:#000000;stroke-width:0.8;" x="216.818182" xlink:href="#m2aec58db69" y="441"/>
      </g>
     </g>
     <g id="text_2">
      <!-- 4 -->
      <defs>
       <path d="M 37.796875 64.3125 
L 12.890625 25.390625 
L 37.796875 25.390625 
z
M 35.203125 72.90625 
L 47.609375 72.90625 
L 47.609375 25.390625 
L 58.015625 25.390625 
L 58.015625 17.1875 
L 47.609375 17.1875 
L 47.609375 0 
L 37.796875 0 
L 37.796875 17.1875 
L 4.890625 17.1875 
L 4.890625 26.703125 
z
" id="DejaVuSans-34"/>
      </defs>
      <g transform="translate(213.636932 455.598437)scale(0.1 -0.1)">
       <use xlink:href="#DejaVuSans-34"/>
      </g>
     </g>
    </g>
    <g id="xtick_3">
     <g id="line2d_3">
      <g>
       <use style="stroke:#000000;stroke-width:0.8;" x="284.454545" xlink:href="#m2aec58db69" y="441"/>
      </g>
     </g>
     <g id="text_3">
      <!-- 6 -->
      <defs>
       <path d="M 33.015625 40.375 
Q 26.375 40.375 22.484375 35.828125 
Q 18.609375 31.296875 18.609375 23.390625 
Q 18.609375 15.53125 22.484375 10.953125 
Q 26.375 6.390625 33.015625 6.390625 
Q 39.65625 6.390625 43.53125 10.953125 
Q 47.40625 15.53125 47.40625 23.390625 
Q 47.40625 31.296875 43.53125 35.828125 
Q 39.65625 40.375 33.015625 40.375 
z
M 52.59375 71.296875 
L 52.59375 62.3125 
Q 48.875 64.0625 45.09375 64.984375 
Q 41.3125 65.921875 37.59375 65.921875 
Q 27.828125 65.921875 22.671875 59.328125 
Q 17.53125 52.734375 16.796875 39.40625 
Q 19.671875 43.65625 24.015625 45.921875 
Q 28.375 48.1875 33.59375 48.1875 
Q 44.578125 48.1875 50.953125 41.515625 
Q 57.328125 34.859375 57.328125 23.390625 
Q 57.328125 12.15625 50.6875 5.359375 
Q 44.046875 -1.421875 33.015625 -1.421875 
Q 20.359375 -1.421875 13.671875 8.265625 
Q 6.984375 17.96875 6.984375 36.375 
Q 6.984375 53.65625 15.1875 63.9375 
Q 23.390625 74.21875 37.203125 74.21875 
Q 40.921875 74.21875 44.703125 73.484375 
Q 48.484375 72.75 52.59375 71.296875 
z
" id="DejaVuSans-36"/>
      </defs>
      <g transform="translate(281.273295 455.598437)scale(0.1 -0.1)">
       <use xlink:href="#DejaVuSans-36"/>
      </g>
     </g>
    </g>
    <g id="xtick_4">
     <g id="line2d_4">
      <g>
       <use style="stroke:#000000;stroke-width:0.8;" x="352.090909" xlink:href="#m2aec58db69" y="441"/>
      </g>
     </g>
     <g id="text_4">
      <!-- 8 -->
      <defs>
       <path d="M 31.78125 34.625 
Q 24.75 34.625 20.71875 30.859375 
Q 16.703125 27.09375 16.703125 20.515625 
Q 16.703125 13.921875 20.71875 10.15625 
Q 24.75 6.390625 31.78125 6.390625 
Q 38.8125 6.390625 42.859375 10.171875 
Q 46.921875 13.96875 46.921875 20.515625 
Q 46.921875 27.09375 42.890625 30.859375 
Q 38.875 34.625 31.78125 34.625 
z
M 21.921875 38.8125 
Q 15.578125 40.375 12.03125 44.71875 
Q 8.5 49.078125 8.5 55.328125 
Q 8.5 64.0625 14.71875 69.140625 
Q 20.953125 74.21875 31.78125 74.21875 
Q 42.671875 74.21875 48.875 69.140625 
Q 55.078125 64.0625 55.078125 55.328125 
Q 55.078125 49.078125 51.53125 44.71875 
Q 48 40.375 41.703125 38.8125 
Q 48.828125 37.15625 52.796875 32.3125 
Q 56.78125 27.484375 56.78125 20.515625 
Q 56.78125 9.90625 50.3125 4.234375 
Q 43.84375 -1.421875 31.78125 -1.421875 
Q 19.734375 -1.421875 13.25 4.234375 
Q 6.78125 9.90625 6.78125 20.515625 
Q 6.78125 27.484375 10.78125 32.3125 
Q 14.796875 37.15625 21.921875 38.8125 
z
M 18.3125 54.390625 
Q 18.3125 48.734375 21.84375 45.5625 
Q 25.390625 42.390625 31.78125 42.390625 
Q 38.140625 42.390625 41.71875 45.5625 
Q 45.3125 48.734375 45.3125 54.390625 
Q 45.3125 60.0625 41.71875 63.234375 
Q 38.140625 66.40625 31.78125 66.40625 
Q 25.390625 66.40625 21.84375 63.234375 
Q 18.3125 60.0625 18.3125 54.390625 
z
" id="DejaVuSans-38"/>
      </defs>
      <g transform="translate(348.909659 455.598437)scale(0.1 -0.1)">
       <use xlink:href="#DejaVuSans-38"/>
      </g>
     </g>
    </g>
    <g id="xtick_5">
     <g id="line2d_5">
      <g>
       <use style="stroke:#000000;stroke-width:0.8;" x="419.727273" xlink:href="#m2aec58db69" y="441"/>
      </g>
     </g>
     <g id="text_5">
      <!-- 10 -->
      <defs>
       <path d="M 12.40625 8.296875 
L 28.515625 8.296875 
L 28.515625 63.921875 
L 10.984375 60.40625 
L 10.984375 69.390625 
L 28.421875 72.90625 
L 38.28125 72.90625 
L 38.28125 8.296875 
L 54.390625 8.296875 
L 54.390625 0 
L 12.40625 0 
z
" id="DejaVuSans-31"/>
       <path d="M 31.78125 66.40625 
Q 24.171875 66.40625 20.328125 58.90625 
Q 16.5 51.421875 16.5 36.375 
Q 16.5 21.390625 20.328125 13.890625 
Q 24.171875 6.390625 31.78125 6.390625 
Q 39.453125 6.390625 43.28125 13.890625 
Q 47.125 21.390625 47.125 36.375 
Q 47.125 51.421875 43.28125 58.90625 
Q 39.453125 66.40625 31.78125 66.40625 
z
M 31.78125 74.21875 
Q 44.046875 74.21875 50.515625 64.515625 
Q 56.984375 54.828125 56.984375 36.375 
Q 56.984375 17.96875 50.515625 8.265625 
Q 44.046875 -1.421875 31.78125 -1.421875 
Q 19.53125 -1.421875 13.0625 8.265625 
Q 6.59375 17.96875 6.59375 36.375 
Q 6.59375 54.828125 13.0625 64.515625 
Q 19.53125 74.21875 31.78125 74.21875 
z
" id="DejaVuSans-30"/>
      </defs>
      <g transform="translate(413.364773 455.598437)scale(0.1 -0.1)">
       <use xlink:href="#DejaVuSans-31"/>
       <use x="63.623047" xlink:href="#DejaVuSans-30"/>
      </g>
     </g>
    </g>
    <g id="xtick_6">
     <g id="line2d_6">
      <g>
       <use style="stroke:#000000;stroke-width:0.8;" x="487.363636" xlink:href="#m2aec58db69" y="441"/>
      </g>
     </g>
     <g id="text_6">
      <!-- 12 -->
      <g transform="translate(481.001136 455.598437)scale(0.1 -0.1)">
       <use xlink:href="#DejaVuSans-31"/>
       <use x="63.623047" xlink:href="#DejaVuSans-32"/>
      </g>
     </g>
    </g>
    <g id="xtick_7">
     <g id="line2d_7">
      <g>
       <use style="stroke:#000000;stroke-width:0.8;" x="555" xlink:href="#m2aec58db69" y="441"/>
      </g>
     </g>
     <g id="text_7">
      <!-- 14 -->
      <g transform="translate(548.6375 455.598437)scale(0.1 -0.1)">
       <use xlink:href="#DejaVuSans-31"/>
       <use x="63.623047" xlink:href="#DejaVuSans-34"/>
      </g>
     </g>
    </g>
    <g id="xtick_8">
     <g id="line2d_8">
      <g>
       <use style="stroke:#000000;stroke-width:0.8;" x="622.636364" xlink:href="#m2aec58db69" y="441"/>
      </g>
     </g>
     <g id="text_8">
      <!-- 16 -->
      <g transform="translate(616.273864 455.598437)scale(0.1 -0.1)">
       <use xlink:href="#DejaVuSans-31"/>
       <use x="63.623047" xlink:href="#DejaVuSans-36"/>
      </g>
     </g>
    </g>
    <g id="text_9">
     <!-- Number of transition steps -->
     <defs>
      <path d="M 9.8125 72.90625 
L 23.09375 72.90625 
L 55.421875 11.921875 
L 55.421875 72.90625 
L 64.984375 72.90625 
L 64.984375 0 
L 51.703125 0 
L 19.390625 60.984375 
L 19.390625 0 
L 9.8125 0 
z
" id="DejaVuSans-4e"/>
      <path d="M 8.5 21.578125 
L 8.5 54.6875 
L 17.484375 54.6875 
L 17.484375 21.921875 
Q 17.484375 14.15625 20.5 10.265625 
Q 23.53125 6.390625 29.59375 6.390625 
Q 36.859375 6.390625 41.078125 11.03125 
Q 45.3125 15.671875 45.3125 23.6875 
L 45.3125 54.6875 
L 54.296875 54.6875 
L 54.296875 0 
L 45.3125 0 
L 45.3125 8.40625 
Q 42.046875 3.421875 37.71875 1 
Q 33.40625 -1.421875 27.6875 -1.421875 
Q 18.265625 -1.421875 13.375 4.4375 
Q 8.5 10.296875 8.5 21.578125 
z
M 31.109375 56 
z
" id="DejaVuSans-75"/>
      <path d="M 52 44.1875 
Q 55.375 50.25 60.0625 53.125 
Q 64.75 56 71.09375 56 
Q 79.640625 56 84.28125 50.015625 
Q 88.921875 44.046875 88.921875 33.015625 
L 88.921875 0 
L 79.890625 0 
L 79.890625 32.71875 
Q 79.890625 40.578125 77.09375 44.375 
Q 74.3125 48.1875 68.609375 48.1875 
Q 61.625 48.1875 57.5625 43.546875 
Q 53.515625 38.921875 53.515625 30.90625 
L 53.515625 0 
L 44.484375 0 
L 44.484375 32.71875 
Q 44.484375 40.625 41.703125 44.40625 
Q 38.921875 48.1875 33.109375 48.1875 
Q 26.21875 48.1875 22.15625 43.53125 
Q 18.109375 38.875 18.109375 30.90625 
L 18.109375 0 
L 9.078125 0 
L 9.078125 54.6875 
L 18.109375 54.6875 
L 18.109375 46.1875 
Q 21.1875 51.21875 25.484375 53.609375 
Q 29.78125 56 35.6875 56 
Q 41.65625 56 45.828125 52.96875 
Q 50 49.953125 52 44.1875 
z
" id="DejaVuSans-6d"/>
      <path d="M 48.6875 27.296875 
Q 48.6875 37.203125 44.609375 42.84375 
Q 40.53125 48.484375 33.40625 48.484375 
Q 26.265625 48.484375 22.1875 42.84375 
Q 18.109375 37.203125 18.109375 27.296875 
Q 18.109375 17.390625 22.1875 11.75 
Q 26.265625 6.109375 33.40625 6.109375 
Q 40.53125 6.109375 44.609375 11.75 
Q 48.6875 17.390625 48.6875 27.296875 
z
M 18.109375 46.390625 
Q 20.953125 51.265625 25.265625 53.625 
Q 29.59375 56 35.59375 56 
Q 45.5625 56 51.78125 48.09375 
Q 58.015625 40.1875 58.015625 27.296875 
Q 58.015625 14.40625 51.78125 6.484375 
Q 45.5625 -1.421875 35.59375 -1.421875 
Q 29.59375 -1.421875 25.265625 0.953125 
Q 20.953125 3.328125 18.109375 8.203125 
L 18.109375 0 
L 9.078125 0 
L 9.078125 75.984375 
L 18.109375 75.984375 
z
" id="DejaVuSans-62"/>
      <path d="M 56.203125 29.59375 
L 56.203125 25.203125 
L 14.890625 25.203125 
Q 15.484375 15.921875 20.484375 11.0625 
Q 25.484375 6.203125 34.421875 6.203125 
Q 39.59375 6.203125 44.453125 7.46875 
Q 49.3125 8.734375 54.109375 11.28125 
L 54.109375 2.78125 
Q 49.265625 0.734375 44.1875 -0.34375 
Q 39.109375 -1.421875 33.890625 -1.421875 
Q 20.796875 -1.421875 13.15625 6.1875 
Q 5.515625 13.8125 5.515625 26.8125 
Q 5.515625 40.234375 12.765625 48.109375 
Q 20.015625 56 32.328125 56 
Q 43.359375 56 49.78125 48.890625 
Q 56.203125 41.796875 56.203125 29.59375 
z
M 47.21875 32.234375 
Q 47.125 39.59375 43.09375 43.984375 
Q 39.0625 48.390625 32.421875 48.390625 
Q 24.90625 48.390625 20.390625 44.140625 
Q 15.875 39.890625 15.1875 32.171875 
z
" id="DejaVuSans-65"/>
      <path d="M 41.109375 46.296875 
Q 39.59375 47.171875 37.8125 47.578125 
Q 36.03125 48 33.890625 48 
Q 26.265625 48 22.1875 43.046875 
Q 18.109375 38.09375 18.109375 28.8125 
L 18.109375 0 
L 9.078125 0 
L 9.078125 54.6875 
L 18.109375 54.6875 
L 18.109375 46.1875 
Q 20.953125 51.171875 25.484375 53.578125 
Q 30.03125 56 36.53125 56 
Q 37.453125 56 38.578125 55.875 
Q 39.703125 55.765625 41.0625 55.515625 
z
" id="DejaVuSans-72"/>
      <path id="DejaVuSans-20"/>
      <path d="M 30.609375 48.390625 
Q 23.390625 48.390625 19.1875 42.75 
Q 14.984375 37.109375 14.984375 27.296875 
Q 14.984375 17.484375 19.15625 11.84375 
Q 23.34375 6.203125 30.609375 6.203125 
Q 37.796875 6.203125 41.984375 11.859375 
Q 46.1875 17.53125 46.1875 27.296875 
Q 46.1875 37.015625 41.984375 42.703125 
Q 37.796875 48.390625 30.609375 48.390625 
z
M 30.609375 56 
Q 42.328125 56 49.015625 48.375 
Q 55.71875 40.765625 55.71875 27.296875 
Q 55.71875 13.875 49.015625 6.21875 
Q 42.328125 -1.421875 30.609375 -1.421875 
Q 18.84375 -1.421875 12.171875 6.21875 
Q 5.515625 13.875 5.515625 27.296875 
Q 5.515625 40.765625 12.171875 48.375 
Q 18.84375 56 30.609375 56 
z
" id="DejaVuSans-6f"/>
      <path d="M 37.109375 75.984375 
L 37.109375 68.5 
L 28.515625 68.5 
Q 23.6875 68.5 21.796875 66.546875 
Q 19.921875 64.59375 19.921875 59.515625 
L 19.921875 54.6875 
L 34.71875 54.6875 
L 34.71875 47.703125 
L 19.921875 47.703125 
L 19.921875 0 
L 10.890625 0 
L 10.890625 47.703125 
L 2.296875 47.703125 
L 2.296875 54.6875 
L 10.890625 54.6875 
L 10.890625 58.5 
Q 10.890625 67.625 15.140625 71.796875 
Q 19.390625 75.984375 28.609375 75.984375 
z
" id="DejaVuSans-66"/>
      <path d="M 18.3125 70.21875 
L 18.3125 54.6875 
L 36.8125 54.6875 
L 36.8125 47.703125 
L 18.3125 47.703125 
L 18.3125 18.015625 
Q 18.3125 11.328125 20.140625 9.421875 
Q 21.96875 7.515625 27.59375 7.515625 
L 36.8125 7.515625 
L 36.8125 0 
L 27.59375 0 
Q 17.1875 0 13.234375 3.875 
Q 9.28125 7.765625 9.28125 18.015625 
L 9.28125 47.703125 
L 2.6875 47.703125 
L 2.6875 54.6875 
L 9.28125 54.6875 
L 9.28125 70.21875 
z
" id="DejaVuSans-74"/>
      <path d="M 34.28125 27.484375 
Q 23.390625 27.484375 19.1875 25 
Q 14.984375 22.515625 14.984375 16.5 
Q 14.984375 11.71875 18.140625 8.90625 
Q 21.296875 6.109375 26.703125 6.109375 
Q 34.1875 6.109375 38.703125 11.40625 
Q 43.21875 16.703125 43.21875 25.484375 
L 43.21875 27.484375 
z
M 52.203125 31.203125 
L 52.203125 0 
L 43.21875 0 
L 43.21875 8.296875 
Q 40.140625 3.328125 35.546875 0.953125 
Q 30.953125 -1.421875 24.3125 -1.421875 
Q 15.921875 -1.421875 10.953125 3.296875 
Q 6 8.015625 6 15.921875 
Q 6 25.140625 12.171875 29.828125 
Q 18.359375 34.515625 30.609375 34.515625 
L 43.21875 34.515625 
L 43.21875 35.40625 
Q 43.21875 41.609375 39.140625 45 
Q 35.0625 48.390625 27.6875 48.390625 
Q 23 48.390625 18.546875 47.265625 
Q 14.109375 46.140625 10.015625 43.890625 
L 10.015625 52.203125 
Q 14.9375 54.109375 19.578125 55.046875 
Q 24.21875 56 28.609375 56 
Q 40.484375 56 46.34375 49.84375 
Q 52.203125 43.703125 52.203125 31.203125 
z
" id="DejaVuSans-61"/>
      <path d="M 54.890625 33.015625 
L 54.890625 0 
L 45.90625 0 
L 45.90625 32.71875 
Q 45.90625 40.484375 42.875 44.328125 
Q 39.84375 48.1875 33.796875 48.1875 
Q 26.515625 48.1875 22.3125 43.546875 
Q 18.109375 38.921875 18.109375 30.90625 
L 18.109375 0 
L 9.078125 0 
L 9.078125 54.6875 
L 18.109375 54.6875 
L 18.109375 46.1875 
Q 21.34375 51.125 25.703125 53.5625 
Q 30.078125 56 35.796875 56 
Q 45.21875 56 50.046875 50.171875 
Q 54.890625 44.34375 54.890625 33.015625 
z
" id="DejaVuSans-6e"/>
      <path d="M 44.28125 53.078125 
L 44.28125 44.578125 
Q 40.484375 46.53125 36.375 47.5 
Q 32.28125 48.484375 27.875 48.484375 
Q 21.1875 48.484375 17.84375 46.4375 
Q 14.5 44.390625 14.5 40.28125 
Q 14.5 37.15625 16.890625 35.375 
Q 19.28125 33.59375 26.515625 31.984375 
L 29.59375 31.296875 
Q 39.15625 29.25 43.1875 25.515625 
Q 47.21875 21.78125 47.21875 15.09375 
Q 47.21875 7.46875 41.1875 3.015625 
Q 35.15625 -1.421875 24.609375 -1.421875 
Q 20.21875 -1.421875 15.453125 -0.5625 
Q 10.6875 0.296875 5.421875 2 
L 5.421875 11.28125 
Q 10.40625 8.6875 15.234375 7.390625 
Q 20.0625 6.109375 24.8125 6.109375 
Q 31.15625 6.109375 34.5625 8.28125 
Q 37.984375 10.453125 37.984375 14.40625 
Q 37.984375 18.0625 35.515625 20.015625 
Q 33.0625 21.96875 24.703125 23.78125 
L 21.578125 24.515625 
Q 13.234375 26.265625 9.515625 29.90625 
Q 5.8125 33.546875 5.8125 39.890625 
Q 5.8125 47.609375 11.28125 51.796875 
Q 16.75 56 26.8125 56 
Q 31.78125 56 36.171875 55.265625 
Q 40.578125 54.546875 44.28125 53.078125 
z
" id="DejaVuSans-73"/>
      <path d="M 9.421875 54.6875 
L 18.40625 54.6875 
L 18.40625 0 
L 9.421875 0 
z
M 9.421875 75.984375 
L 18.40625 75.984375 
L 18.40625 64.59375 
L 9.421875 64.59375 
z
" id="DejaVuSans-69"/>
      <path d="M 18.109375 8.203125 
L 18.109375 -20.796875 
L 9.078125 -20.796875 
L 9.078125 54.6875 
L 18.109375 54.6875 
L 18.109375 46.390625 
Q 20.953125 51.265625 25.265625 53.625 
Q 29.59375 56 35.59375 56 
Q 45.5625 56 51.78125 48.09375 
Q 58.015625 40.1875 58.015625 27.296875 
Q 58.015625 14.40625 51.78125 6.484375 
Q 45.5625 -1.421875 35.59375 -1.421875 
Q 29.59375 -1.421875 25.265625 0.953125 
Q 20.953125 3.328125 18.109375 8.203125 
z
M 48.6875 27.296875 
Q 48.6875 37.203125 44.609375 42.84375 
Q 40.53125 48.484375 33.40625 48.484375 
Q 26.265625 48.484375 22.1875 42.84375 
Q 18.109375 37.203125 18.109375 27.296875 
Q 18.109375 17.390625 22.1875 11.75 
Q 26.265625 6.109375 33.40625 6.109375 
Q 40.53125 6.109375 44.609375 11.75 
Q 48.6875 17.390625 48.6875 27.296875 
z
" id="DejaVuSans-70"/>
     </defs>
     <g transform="translate(235.175 476.875)scale(0.2 -0.2)">
      <use xlink:href="#DejaVuSans-4e"/>
      <use x="74.804688" xlink:href="#DejaVuSans-75"/>
      <use x="138.183594" xlink:href="#DejaVuSans-6d"/>
      <use x="235.595703" xlink:href="#DejaVuSans-62"/>
      <use x="299.072266" xlink:href="#DejaVuSans-65"/>
      <use x="360.595703" xlink:href="#DejaVuSans-72"/>
      <use x="401.708984" xlink:href="#DejaVuSans-20"/>
      <use x="433.496094" xlink:href="#DejaVuSans-6f"/>
      <use x="494.677734" xlink:href="#DejaVuSans-66"/>
      <use x="529.882812" xlink:href="#DejaVuSans-20"/>
      <use x="561.669922" xlink:href="#DejaVuSans-74"/>
      <use x="600.878906" xlink:href="#DejaVuSans-72"/>
      <use x="641.992188" xlink:href="#DejaVuSans-61"/>
      <use x="703.271484" xlink:href="#DejaVuSans-6e"/>
      <use x="766.650391" xlink:href="#DejaVuSans-73"/>
      <use x="818.75" xlink:href="#DejaVuSans-69"/>
      <use x="846.533203" xlink:href="#DejaVuSans-74"/>
      <use x="885.742188" xlink:href="#DejaVuSans-69"/>
      <use x="913.525391" xlink:href="#DejaVuSans-6f"/>
      <use x="974.707031" xlink:href="#DejaVuSans-6e"/>
      <use x="1038.085938" xlink:href="#DejaVuSans-20"/>
      <use x="1069.873047" xlink:href="#DejaVuSans-73"/>
      <use x="1121.972656" xlink:href="#DejaVuSans-74"/>
      <use x="1161.181641" xlink:href="#DejaVuSans-65"/>
      <use x="1222.705078" xlink:href="#DejaVuSans-70"/>
      <use x="1286.181641" xlink:href="#DejaVuSans-73"/>
     </g>
    </g>
   </g>
   <g id="matplotlib.axis_2">
    <g id="ytick_1">
     <g id="line2d_9">
      <defs>
       <path d="M 0 0 
L -3.5 0 
" id="maca2fc680a" style="stroke:#000000;stroke-width:0.8;"/>
      </defs>
      <g>
       <use style="stroke:#000000;stroke-width:0.8;" x="90" xlink:href="#maca2fc680a" y="423.727285"/>
      </g>
     </g>
     <g id="text_10">
      <!-- 0 -->
      <g transform="translate(76.6375 427.526504)scale(0.1 -0.1)">
       <use xlink:href="#DejaVuSans-30"/>
      </g>
     </g>
    </g>
    <g id="ytick_2">
     <g id="line2d_10">
      <g>
       <use style="stroke:#000000;stroke-width:0.8;" x="90" xlink:href="#maca2fc680a" y="358.464178"/>
      </g>
     </g>
     <g id="text_11">
      <!-- 5 -->
      <defs>
       <path d="M 10.796875 72.90625 
L 49.515625 72.90625 
L 49.515625 64.59375 
L 19.828125 64.59375 
L 19.828125 46.734375 
Q 21.96875 47.46875 24.109375 47.828125 
Q 26.265625 48.1875 28.421875 48.1875 
Q 40.625 48.1875 47.75 41.5 
Q 54.890625 34.8125 54.890625 23.390625 
Q 54.890625 11.625 47.5625 5.09375 
Q 40.234375 -1.421875 26.90625 -1.421875 
Q 22.3125 -1.421875 17.546875 -0.640625 
Q 12.796875 0.140625 7.71875 1.703125 
L 7.71875 11.625 
Q 12.109375 9.234375 16.796875 8.0625 
Q 21.484375 6.890625 26.703125 6.890625 
Q 35.15625 6.890625 40.078125 11.328125 
Q 45.015625 15.765625 45.015625 23.390625 
Q 45.015625 31 40.078125 35.4375 
Q 35.15625 39.890625 26.703125 39.890625 
Q 22.75 39.890625 18.8125 39.015625 
Q 14.890625 38.140625 10.796875 36.28125 
z
" id="DejaVuSans-35"/>
      </defs>
      <g transform="translate(76.6375 362.263397)scale(0.1 -0.1)">
       <use xlink:href="#DejaVuSans-35"/>
      </g>
     </g>
    </g>
    <g id="ytick_3">
     <g id="line2d_11">
      <g>
       <use style="stroke:#000000;stroke-width:0.8;" x="90" xlink:href="#maca2fc680a" y="293.201071"/>
      </g>
     </g>
     <g id="text_12">
      <!-- 10 -->
      <g transform="translate(70.275 297.00029)scale(0.1 -0.1)">
       <use xlink:href="#DejaVuSans-31"/>
       <use x="63.623047" xlink:href="#DejaVuSans-30"/>
      </g>
     </g>
    </g>
    <g id="ytick_4">
     <g id="line2d_12">
      <g>
       <use style="stroke:#000000;stroke-width:0.8;" x="90" xlink:href="#maca2fc680a" y="227.937964"/>
      </g>
     </g>
     <g id="text_13">
      <!-- 15 -->
      <g transform="translate(70.275 231.737183)scale(0.1 -0.1)">
       <use xlink:href="#DejaVuSans-31"/>
       <use x="63.623047" xlink:href="#DejaVuSans-35"/>
      </g>
     </g>
    </g>
    <g id="ytick_5">
     <g id="line2d_13">
      <g>
       <use style="stroke:#000000;stroke-width:0.8;" x="90" xlink:href="#maca2fc680a" y="162.674857"/>
      </g>
     </g>
     <g id="text_14">
      <!-- 20 -->
      <g transform="translate(70.275 166.474075)scale(0.1 -0.1)">
       <use xlink:href="#DejaVuSans-32"/>
       <use x="63.623047" xlink:href="#DejaVuSans-30"/>
      </g>
     </g>
    </g>
    <g id="ytick_6">
     <g id="line2d_14">
      <g>
       <use style="stroke:#000000;stroke-width:0.8;" x="90" xlink:href="#maca2fc680a" y="97.411749"/>
      </g>
     </g>
     <g id="text_15">
      <!-- 25 -->
      <g transform="translate(70.275 101.210968)scale(0.1 -0.1)">
       <use xlink:href="#DejaVuSans-32"/>
       <use x="63.623047" xlink:href="#DejaVuSans-35"/>
      </g>
     </g>
    </g>
    <g id="text_16">
     <!-- Mean log-loss of feature prediction -->
     <defs>
      <path d="M 9.8125 72.90625 
L 24.515625 72.90625 
L 43.109375 23.296875 
L 61.8125 72.90625 
L 76.515625 72.90625 
L 76.515625 0 
L 66.890625 0 
L 66.890625 64.015625 
L 48.09375 14.015625 
L 38.1875 14.015625 
L 19.390625 64.015625 
L 19.390625 0 
L 9.8125 0 
z
" id="DejaVuSans-4d"/>
      <path d="M 9.421875 75.984375 
L 18.40625 75.984375 
L 18.40625 0 
L 9.421875 0 
z
" id="DejaVuSans-6c"/>
      <path d="M 45.40625 27.984375 
Q 45.40625 37.75 41.375 43.109375 
Q 37.359375 48.484375 30.078125 48.484375 
Q 22.859375 48.484375 18.828125 43.109375 
Q 14.796875 37.75 14.796875 27.984375 
Q 14.796875 18.265625 18.828125 12.890625 
Q 22.859375 7.515625 30.078125 7.515625 
Q 37.359375 7.515625 41.375 12.890625 
Q 45.40625 18.265625 45.40625 27.984375 
z
M 54.390625 6.78125 
Q 54.390625 -7.171875 48.1875 -13.984375 
Q 42 -20.796875 29.203125 -20.796875 
Q 24.46875 -20.796875 20.265625 -20.09375 
Q 16.0625 -19.390625 12.109375 -17.921875 
L 12.109375 -9.1875 
Q 16.0625 -11.328125 19.921875 -12.34375 
Q 23.78125 -13.375 27.78125 -13.375 
Q 36.625 -13.375 41.015625 -8.765625 
Q 45.40625 -4.15625 45.40625 5.171875 
L 45.40625 9.625 
Q 42.625 4.78125 38.28125 2.390625 
Q 33.9375 0 27.875 0 
Q 17.828125 0 11.671875 7.65625 
Q 5.515625 15.328125 5.515625 27.984375 
Q 5.515625 40.671875 11.671875 48.328125 
Q 17.828125 56 27.875 56 
Q 33.9375 56 38.28125 53.609375 
Q 42.625 51.21875 45.40625 46.390625 
L 45.40625 54.6875 
L 54.390625 54.6875 
z
" id="DejaVuSans-67"/>
      <path d="M 4.890625 31.390625 
L 31.203125 31.390625 
L 31.203125 23.390625 
L 4.890625 23.390625 
z
" id="DejaVuSans-2d"/>
      <path d="M 45.40625 46.390625 
L 45.40625 75.984375 
L 54.390625 75.984375 
L 54.390625 0 
L 45.40625 0 
L 45.40625 8.203125 
Q 42.578125 3.328125 38.25 0.953125 
Q 33.9375 -1.421875 27.875 -1.421875 
Q 17.96875 -1.421875 11.734375 6.484375 
Q 5.515625 14.40625 5.515625 27.296875 
Q 5.515625 40.1875 11.734375 48.09375 
Q 17.96875 56 27.875 56 
Q 33.9375 56 38.25 53.625 
Q 42.578125 51.265625 45.40625 46.390625 
z
M 14.796875 27.296875 
Q 14.796875 17.390625 18.875 11.75 
Q 22.953125 6.109375 30.078125 6.109375 
Q 37.203125 6.109375 41.296875 11.75 
Q 45.40625 17.390625 45.40625 27.296875 
Q 45.40625 37.203125 41.296875 42.84375 
Q 37.203125 48.484375 30.078125 48.484375 
Q 22.953125 48.484375 18.875 42.84375 
Q 14.796875 37.203125 14.796875 27.296875 
z
" id="DejaVuSans-64"/>
      <path d="M 48.78125 52.59375 
L 48.78125 44.1875 
Q 44.96875 46.296875 41.140625 47.34375 
Q 37.3125 48.390625 33.40625 48.390625 
Q 24.65625 48.390625 19.8125 42.84375 
Q 14.984375 37.3125 14.984375 27.296875 
Q 14.984375 17.28125 19.8125 11.734375 
Q 24.65625 6.203125 33.40625 6.203125 
Q 37.3125 6.203125 41.140625 7.25 
Q 44.96875 8.296875 48.78125 10.40625 
L 48.78125 2.09375 
Q 45.015625 0.34375 40.984375 -0.53125 
Q 36.96875 -1.421875 32.421875 -1.421875 
Q 20.0625 -1.421875 12.78125 6.34375 
Q 5.515625 14.109375 5.515625 27.296875 
Q 5.515625 40.671875 12.859375 48.328125 
Q 20.21875 56 33.015625 56 
Q 37.15625 56 41.109375 55.140625 
Q 45.0625 54.296875 48.78125 52.59375 
z
" id="DejaVuSans-63"/>
     </defs>
     <g transform="translate(62.115625 425.216563)rotate(-90)scale(0.2 -0.2)">
      <use xlink:href="#DejaVuSans-4d"/>
      <use x="86.279297" xlink:href="#DejaVuSans-65"/>
      <use x="147.802734" xlink:href="#DejaVuSans-61"/>
      <use x="209.082031" xlink:href="#DejaVuSans-6e"/>
      <use x="272.460938" xlink:href="#DejaVuSans-20"/>
      <use x="304.248047" xlink:href="#DejaVuSans-6c"/>
      <use x="332.03125" xlink:href="#DejaVuSans-6f"/>
      <use x="393.212891" xlink:href="#DejaVuSans-67"/>
      <use x="456.689453" xlink:href="#DejaVuSans-2d"/>
      <use x="492.773438" xlink:href="#DejaVuSans-6c"/>
      <use x="520.556641" xlink:href="#DejaVuSans-6f"/>
      <use x="581.738281" xlink:href="#DejaVuSans-73"/>
      <use x="633.837891" xlink:href="#DejaVuSans-73"/>
      <use x="685.9375" xlink:href="#DejaVuSans-20"/>
      <use x="717.724609" xlink:href="#DejaVuSans-6f"/>
      <use x="778.90625" xlink:href="#DejaVuSans-66"/>
      <use x="814.111328" xlink:href="#DejaVuSans-20"/>
      <use x="845.898438" xlink:href="#DejaVuSans-66"/>
      <use x="881.103516" xlink:href="#DejaVuSans-65"/>
      <use x="942.626953" xlink:href="#DejaVuSans-61"/>
      <use x="1003.90625" xlink:href="#DejaVuSans-74"/>
      <use x="1043.115234" xlink:href="#DejaVuSans-75"/>
      <use x="1106.494141" xlink:href="#DejaVuSans-72"/>
      <use x="1147.576172" xlink:href="#DejaVuSans-65"/>
      <use x="1209.099609" xlink:href="#DejaVuSans-20"/>
      <use x="1240.886719" xlink:href="#DejaVuSans-70"/>
      <use x="1304.363281" xlink:href="#DejaVuSans-72"/>
      <use x="1345.445312" xlink:href="#DejaVuSans-65"/>
      <use x="1406.96875" xlink:href="#DejaVuSans-64"/>
      <use x="1470.445312" xlink:href="#DejaVuSans-69"/>
      <use x="1498.228516" xlink:href="#DejaVuSans-63"/>
      <use x="1553.208984" xlink:href="#DejaVuSans-74"/>
      <use x="1592.417969" xlink:href="#DejaVuSans-69"/>
      <use x="1620.201172" xlink:href="#DejaVuSans-6f"/>
      <use x="1681.382812" xlink:href="#DejaVuSans-6e"/>
     </g>
    </g>
   </g>
   <g id="line2d_15">
    <path clip-path="url(#pad279afd61)" d="M 115.363636 414.711711 
L 149.181818 414.737959 
L 183 414.652274 
L 216.818182 414.659321 
L 250.636364 414.647904 
L 284.454545 414.651563 
L 318.272727 414.654459 
L 352.090909 414.65764 
L 385.909091 414.662634 
L 419.727273 414.65486 
L 453.545455 414.657528 
L 487.363636 414.657917 
L 521.181818 414.655861 
L 555 414.659584 
L 588.818182 414.650388 
L 622.636364 414.660934 
" style="fill:none;stroke:#1f77b4;stroke-linecap:square;stroke-width:3;"/>
    <defs>
     <path d="M 0 5 
C 1.326016 5 2.597899 4.473168 3.535534 3.535534 
C 4.473168 2.597899 5 1.326016 5 0 
C 5 -1.326016 4.473168 -2.597899 3.535534 -3.535534 
C 2.597899 -4.473168 1.326016 -5 0 -5 
C -1.326016 -5 -2.597899 -4.473168 -3.535534 -3.535534 
C -4.473168 -2.597899 -5 -1.326016 -5 0 
C -5 1.326016 -4.473168 2.597899 -3.535534 3.535534 
C -2.597899 4.473168 -1.326016 5 0 5 
z
" id="mff64efc627" style="stroke:#1f77b4;"/>
    </defs>
    <g clip-path="url(#pad279afd61)">
     <use style="fill:#1f77b4;stroke:#1f77b4;" x="115.363636" xlink:href="#mff64efc627" y="414.711711"/>
     <use style="fill:#1f77b4;stroke:#1f77b4;" x="149.181818" xlink:href="#mff64efc627" y="414.737959"/>
     <use style="fill:#1f77b4;stroke:#1f77b4;" x="183" xlink:href="#mff64efc627" y="414.652274"/>
     <use style="fill:#1f77b4;stroke:#1f77b4;" x="216.818182" xlink:href="#mff64efc627" y="414.659321"/>
     <use style="fill:#1f77b4;stroke:#1f77b4;" x="250.636364" xlink:href="#mff64efc627" y="414.647904"/>
     <use style="fill:#1f77b4;stroke:#1f77b4;" x="284.454545" xlink:href="#mff64efc627" y="414.651563"/>
     <use style="fill:#1f77b4;stroke:#1f77b4;" x="318.272727" xlink:href="#mff64efc627" y="414.654459"/>
     <use style="fill:#1f77b4;stroke:#1f77b4;" x="352.090909" xlink:href="#mff64efc627" y="414.65764"/>
     <use style="fill:#1f77b4;stroke:#1f77b4;" x="385.909091" xlink:href="#mff64efc627" y="414.662634"/>
     <use style="fill:#1f77b4;stroke:#1f77b4;" x="419.727273" xlink:href="#mff64efc627" y="414.65486"/>
     <use style="fill:#1f77b4;stroke:#1f77b4;" x="453.545455" xlink:href="#mff64efc627" y="414.657528"/>
     <use style="fill:#1f77b4;stroke:#1f77b4;" x="487.363636" xlink:href="#mff64efc627" y="414.657917"/>
     <use style="fill:#1f77b4;stroke:#1f77b4;" x="521.181818" xlink:href="#mff64efc627" y="414.655861"/>
     <use style="fill:#1f77b4;stroke:#1f77b4;" x="555" xlink:href="#mff64efc627" y="414.659584"/>
     <use style="fill:#1f77b4;stroke:#1f77b4;" x="588.818182" xlink:href="#mff64efc627" y="414.650388"/>
     <use style="fill:#1f77b4;stroke:#1f77b4;" x="622.636364" xlink:href="#mff64efc627" y="414.660934"/>
    </g>
   </g>
   <g id="line2d_16">
    <path clip-path="url(#pad279afd61)" d="M 115.363636 423.574504 
L 149.181818 423.588722 
L 183 423.621872 
L 216.818182 423.699072 
L 250.636364 423.703636 
L 284.454545 423.703212 
L 318.272727 423.701172 
L 352.090909 423.68476 
L 385.909091 423.681382 
L 419.727273 423.670061 
L 453.545455 423.672869 
L 487.363636 423.676964 
L 521.181818 423.67182 
L 555 423.669405 
L 588.818182 423.668065 
L 622.636364 423.67643 
" style="fill:none;stroke:#ff7f0e;stroke-linecap:square;stroke-width:3;"/>
    <defs>
     <path d="M 0 5 
C 1.326016 5 2.597899 4.473168 3.535534 3.535534 
C 4.473168 2.597899 5 1.326016 5 0 
C 5 -1.326016 4.473168 -2.597899 3.535534 -3.535534 
C 2.597899 -4.473168 1.326016 -5 0 -5 
C -1.326016 -5 -2.597899 -4.473168 -3.535534 -3.535534 
C -4.473168 -2.597899 -5 -1.326016 -5 0 
C -5 1.326016 -4.473168 2.597899 -3.535534 3.535534 
C -2.597899 4.473168 -1.326016 5 0 5 
z
" id="m37ef82b9f3" style="stroke:#ff7f0e;"/>
    </defs>
    <g clip-path="url(#pad279afd61)">
     <use style="fill:#ff7f0e;stroke:#ff7f0e;" x="115.363636" xlink:href="#m37ef82b9f3" y="423.574504"/>
     <use style="fill:#ff7f0e;stroke:#ff7f0e;" x="149.181818" xlink:href="#m37ef82b9f3" y="423.588722"/>
     <use style="fill:#ff7f0e;stroke:#ff7f0e;" x="183" xlink:href="#m37ef82b9f3" y="423.621872"/>
     <use style="fill:#ff7f0e;stroke:#ff7f0e;" x="216.818182" xlink:href="#m37ef82b9f3" y="423.699072"/>
     <use style="fill:#ff7f0e;stroke:#ff7f0e;" x="250.636364" xlink:href="#m37ef82b9f3" y="423.703636"/>
     <use style="fill:#ff7f0e;stroke:#ff7f0e;" x="284.454545" xlink:href="#m37ef82b9f3" y="423.703212"/>
     <use style="fill:#ff7f0e;stroke:#ff7f0e;" x="318.272727" xlink:href="#m37ef82b9f3" y="423.701172"/>
     <use style="fill:#ff7f0e;stroke:#ff7f0e;" x="352.090909" xlink:href="#m37ef82b9f3" y="423.68476"/>
     <use style="fill:#ff7f0e;stroke:#ff7f0e;" x="385.909091" xlink:href="#m37ef82b9f3" y="423.681382"/>
     <use style="fill:#ff7f0e;stroke:#ff7f0e;" x="419.727273" xlink:href="#m37ef82b9f3" y="423.670061"/>
     <use style="fill:#ff7f0e;stroke:#ff7f0e;" x="453.545455" xlink:href="#m37ef82b9f3" y="423.672869"/>
     <use style="fill:#ff7f0e;stroke:#ff7f0e;" x="487.363636" xlink:href="#m37ef82b9f3" y="423.676964"/>
     <use style="fill:#ff7f0e;stroke:#ff7f0e;" x="521.181818" xlink:href="#m37ef82b9f3" y="423.67182"/>
     <use style="fill:#ff7f0e;stroke:#ff7f0e;" x="555" xlink:href="#m37ef82b9f3" y="423.669405"/>
     <use style="fill:#ff7f0e;stroke:#ff7f0e;" x="588.818182" xlink:href="#m37ef82b9f3" y="423.668065"/>
     <use style="fill:#ff7f0e;stroke:#ff7f0e;" x="622.636364" xlink:href="#m37ef82b9f3" y="423.67643"/>
    </g>
   </g>
   <g id="line2d_17">
    <path clip-path="url(#pad279afd61)" d="M 115.363636 110.866358 
L 149.181818 162.736617 
L 183 196.9332 
L 216.818182 224.526835 
L 250.636364 248.511849 
L 284.454545 267.027137 
L 318.272727 282.099225 
L 352.090909 295.232416 
L 385.909091 306.224447 
L 419.727273 315.720713 
L 453.545455 323.62459 
L 487.363636 330.246515 
L 521.181818 334.143646 
L 555 338.398108 
L 588.818182 341.992294 
L 622.636364 347.46023 
" style="fill:none;stroke:#2ca02c;stroke-linecap:square;stroke-width:3;"/>
    <defs>
     <path d="M 0 5 
C 1.326016 5 2.597899 4.473168 3.535534 3.535534 
C 4.473168 2.597899 5 1.326016 5 0 
C 5 -1.326016 4.473168 -2.597899 3.535534 -3.535534 
C 2.597899 -4.473168 1.326016 -5 0 -5 
C -1.326016 -5 -2.597899 -4.473168 -3.535534 -3.535534 
C -4.473168 -2.597899 -5 -1.326016 -5 0 
C -5 1.326016 -4.473168 2.597899 -3.535534 3.535534 
C -2.597899 4.473168 -1.326016 5 0 5 
z
" id="mcd58c3257e" style="stroke:#2ca02c;"/>
    </defs>
    <g clip-path="url(#pad279afd61)">
     <use style="fill:#2ca02c;stroke:#2ca02c;" x="115.363636" xlink:href="#mcd58c3257e" y="110.866358"/>
     <use style="fill:#2ca02c;stroke:#2ca02c;" x="149.181818" xlink:href="#mcd58c3257e" y="162.736617"/>
     <use style="fill:#2ca02c;stroke:#2ca02c;" x="183" xlink:href="#mcd58c3257e" y="196.9332"/>
     <use style="fill:#2ca02c;stroke:#2ca02c;" x="216.818182" xlink:href="#mcd58c3257e" y="224.526835"/>
     <use style="fill:#2ca02c;stroke:#2ca02c;" x="250.636364" xlink:href="#mcd58c3257e" y="248.511849"/>
     <use style="fill:#2ca02c;stroke:#2ca02c;" x="284.454545" xlink:href="#mcd58c3257e" y="267.027137"/>
     <use style="fill:#2ca02c;stroke:#2ca02c;" x="318.272727" xlink:href="#mcd58c3257e" y="282.099225"/>
     <use style="fill:#2ca02c;stroke:#2ca02c;" x="352.090909" xlink:href="#mcd58c3257e" y="295.232416"/>
     <use style="fill:#2ca02c;stroke:#2ca02c;" x="385.909091" xlink:href="#mcd58c3257e" y="306.224447"/>
     <use style="fill:#2ca02c;stroke:#2ca02c;" x="419.727273" xlink:href="#mcd58c3257e" y="315.720713"/>
     <use style="fill:#2ca02c;stroke:#2ca02c;" x="453.545455" xlink:href="#mcd58c3257e" y="323.62459"/>
     <use style="fill:#2ca02c;stroke:#2ca02c;" x="487.363636" xlink:href="#mcd58c3257e" y="330.246515"/>
     <use style="fill:#2ca02c;stroke:#2ca02c;" x="521.181818" xlink:href="#mcd58c3257e" y="334.143646"/>
     <use style="fill:#2ca02c;stroke:#2ca02c;" x="555" xlink:href="#mcd58c3257e" y="338.398108"/>
     <use style="fill:#2ca02c;stroke:#2ca02c;" x="588.818182" xlink:href="#mcd58c3257e" y="341.992294"/>
     <use style="fill:#2ca02c;stroke:#2ca02c;" x="622.636364" xlink:href="#mcd58c3257e" y="347.46023"/>
    </g>
   </g>
   <g id="line2d_18">
    <path clip-path="url(#pad279afd61)" d="M 115.363636 77.776364 
L 149.181818 97.741983 
L 183 124.523295 
L 216.818182 156.848148 
L 250.636364 185.201566 
L 284.454545 210.525268 
L 318.272727 228.987471 
L 352.090909 246.203172 
L 385.909091 257.902195 
L 419.727273 267.867156 
L 453.545455 275.068531 
L 487.363636 281.629664 
L 521.181818 283.841605 
L 555 288.533011 
L 588.818182 289.47834 
L 622.636364 298.854258 
" style="fill:none;stroke:#d62728;stroke-linecap:square;stroke-width:3;"/>
    <defs>
     <path d="M 0 5 
C 1.326016 5 2.597899 4.473168 3.535534 3.535534 
C 4.473168 2.597899 5 1.326016 5 0 
C 5 -1.326016 4.473168 -2.597899 3.535534 -3.535534 
C 2.597899 -4.473168 1.326016 -5 0 -5 
C -1.326016 -5 -2.597899 -4.473168 -3.535534 -3.535534 
C -4.473168 -2.597899 -5 -1.326016 -5 0 
C -5 1.326016 -4.473168 2.597899 -3.535534 3.535534 
C -2.597899 4.473168 -1.326016 5 0 5 
z
" id="m93b5e00f0a" style="stroke:#d62728;"/>
    </defs>
    <g clip-path="url(#pad279afd61)">
     <use style="fill:#d62728;stroke:#d62728;" x="115.363636" xlink:href="#m93b5e00f0a" y="77.776364"/>
     <use style="fill:#d62728;stroke:#d62728;" x="149.181818" xlink:href="#m93b5e00f0a" y="97.741983"/>
     <use style="fill:#d62728;stroke:#d62728;" x="183" xlink:href="#m93b5e00f0a" y="124.523295"/>
     <use style="fill:#d62728;stroke:#d62728;" x="216.818182" xlink:href="#m93b5e00f0a" y="156.848148"/>
     <use style="fill:#d62728;stroke:#d62728;" x="250.636364" xlink:href="#m93b5e00f0a" y="185.201566"/>
     <use style="fill:#d62728;stroke:#d62728;" x="284.454545" xlink:href="#m93b5e00f0a" y="210.525268"/>
     <use style="fill:#d62728;stroke:#d62728;" x="318.272727" xlink:href="#m93b5e00f0a" y="228.987471"/>
     <use style="fill:#d62728;stroke:#d62728;" x="352.090909" xlink:href="#m93b5e00f0a" y="246.203172"/>
     <use style="fill:#d62728;stroke:#d62728;" x="385.909091" xlink:href="#m93b5e00f0a" y="257.902195"/>
     <use style="fill:#d62728;stroke:#d62728;" x="419.727273" xlink:href="#m93b5e00f0a" y="267.867156"/>
     <use style="fill:#d62728;stroke:#d62728;" x="453.545455" xlink:href="#m93b5e00f0a" y="275.068531"/>
     <use style="fill:#d62728;stroke:#d62728;" x="487.363636" xlink:href="#m93b5e00f0a" y="281.629664"/>
     <use style="fill:#d62728;stroke:#d62728;" x="521.181818" xlink:href="#m93b5e00f0a" y="283.841605"/>
     <use style="fill:#d62728;stroke:#d62728;" x="555" xlink:href="#m93b5e00f0a" y="288.533011"/>
     <use style="fill:#d62728;stroke:#d62728;" x="588.818182" xlink:href="#m93b5e00f0a" y="289.47834"/>
     <use style="fill:#d62728;stroke:#d62728;" x="622.636364" xlink:href="#m93b5e00f0a" y="298.854258"/>
    </g>
   </g>
   <g id="line2d_19">
    <path clip-path="url(#pad279afd61)" d="M 115.363636 275.500725 
L 149.181818 314.601944 
L 183 338.447938 
L 216.818182 356.005604 
L 250.636364 370.189476 
L 284.454545 379.675013 
L 318.272727 387.714356 
L 352.090909 393.177248 
L 385.909091 398.74419 
L 419.727273 402.758262 
L 453.545455 405.249959 
L 487.363636 407.981871 
L 521.181818 409.853821 
L 555 410.503565 
L 588.818182 411.876437 
L 622.636364 411.971275 
" style="fill:none;stroke:#9467bd;stroke-linecap:square;stroke-width:3;"/>
    <defs>
     <path d="M 0 5 
C 1.326016 5 2.597899 4.473168 3.535534 3.535534 
C 4.473168 2.597899 5 1.326016 5 0 
C 5 -1.326016 4.473168 -2.597899 3.535534 -3.535534 
C 2.597899 -4.473168 1.326016 -5 0 -5 
C -1.326016 -5 -2.597899 -4.473168 -3.535534 -3.535534 
C -4.473168 -2.597899 -5 -1.326016 -5 0 
C -5 1.326016 -4.473168 2.597899 -3.535534 3.535534 
C -2.597899 4.473168 -1.326016 5 0 5 
z
" id="m5f9e4c6615" style="stroke:#9467bd;"/>
    </defs>
    <g clip-path="url(#pad279afd61)">
     <use style="fill:#9467bd;stroke:#9467bd;" x="115.363636" xlink:href="#m5f9e4c6615" y="275.500725"/>
     <use style="fill:#9467bd;stroke:#9467bd;" x="149.181818" xlink:href="#m5f9e4c6615" y="314.601944"/>
     <use style="fill:#9467bd;stroke:#9467bd;" x="183" xlink:href="#m5f9e4c6615" y="338.447938"/>
     <use style="fill:#9467bd;stroke:#9467bd;" x="216.818182" xlink:href="#m5f9e4c6615" y="356.005604"/>
     <use style="fill:#9467bd;stroke:#9467bd;" x="250.636364" xlink:href="#m5f9e4c6615" y="370.189476"/>
     <use style="fill:#9467bd;stroke:#9467bd;" x="284.454545" xlink:href="#m5f9e4c6615" y="379.675013"/>
     <use style="fill:#9467bd;stroke:#9467bd;" x="318.272727" xlink:href="#m5f9e4c6615" y="387.714356"/>
     <use style="fill:#9467bd;stroke:#9467bd;" x="352.090909" xlink:href="#m5f9e4c6615" y="393.177248"/>
     <use style="fill:#9467bd;stroke:#9467bd;" x="385.909091" xlink:href="#m5f9e4c6615" y="398.74419"/>
     <use style="fill:#9467bd;stroke:#9467bd;" x="419.727273" xlink:href="#m5f9e4c6615" y="402.758262"/>
     <use style="fill:#9467bd;stroke:#9467bd;" x="453.545455" xlink:href="#m5f9e4c6615" y="405.249959"/>
     <use style="fill:#9467bd;stroke:#9467bd;" x="487.363636" xlink:href="#m5f9e4c6615" y="407.981871"/>
     <use style="fill:#9467bd;stroke:#9467bd;" x="521.181818" xlink:href="#m5f9e4c6615" y="409.853821"/>
     <use style="fill:#9467bd;stroke:#9467bd;" x="555" xlink:href="#m5f9e4c6615" y="410.503565"/>
     <use style="fill:#9467bd;stroke:#9467bd;" x="588.818182" xlink:href="#m5f9e4c6615" y="411.876437"/>
     <use style="fill:#9467bd;stroke:#9467bd;" x="622.636364" xlink:href="#m5f9e4c6615" y="411.971275"/>
    </g>
   </g>
   <g id="line2d_20">
    <path clip-path="url(#pad279afd61)" d="M 115.363636 245.260589 
L 149.181818 266.864437 
L 183 288.81562 
L 216.818182 310.386132 
L 250.636364 325.943196 
L 284.454545 337.893638 
L 318.272727 349.053001 
L 352.090909 354.94502 
L 385.909091 363.876787 
L 419.727273 370.487326 
L 453.545455 375.130369 
L 487.363636 379.12968 
L 521.181818 380.731991 
L 555 384.022532 
L 588.818182 385.248464 
L 622.636364 387.739742 
" style="fill:none;stroke:#8c564b;stroke-linecap:square;stroke-width:3;"/>
    <defs>
     <path d="M 0 5 
C 1.326016 5 2.597899 4.473168 3.535534 3.535534 
C 4.473168 2.597899 5 1.326016 5 0 
C 5 -1.326016 4.473168 -2.597899 3.535534 -3.535534 
C 2.597899 -4.473168 1.326016 -5 0 -5 
C -1.326016 -5 -2.597899 -4.473168 -3.535534 -3.535534 
C -4.473168 -2.597899 -5 -1.326016 -5 0 
C -5 1.326016 -4.473168 2.597899 -3.535534 3.535534 
C -2.597899 4.473168 -1.326016 5 0 5 
z
" id="m9c62b29e0d" style="stroke:#8c564b;"/>
    </defs>
    <g clip-path="url(#pad279afd61)">
     <use style="fill:#8c564b;stroke:#8c564b;" x="115.363636" xlink:href="#m9c62b29e0d" y="245.260589"/>
     <use style="fill:#8c564b;stroke:#8c564b;" x="149.181818" xlink:href="#m9c62b29e0d" y="266.864437"/>
     <use style="fill:#8c564b;stroke:#8c564b;" x="183" xlink:href="#m9c62b29e0d" y="288.81562"/>
     <use style="fill:#8c564b;stroke:#8c564b;" x="216.818182" xlink:href="#m9c62b29e0d" y="310.386132"/>
     <use style="fill:#8c564b;stroke:#8c564b;" x="250.636364" xlink:href="#m9c62b29e0d" y="325.943196"/>
     <use style="fill:#8c564b;stroke:#8c564b;" x="284.454545" xlink:href="#m9c62b29e0d" y="337.893638"/>
     <use style="fill:#8c564b;stroke:#8c564b;" x="318.272727" xlink:href="#m9c62b29e0d" y="349.053001"/>
     <use style="fill:#8c564b;stroke:#8c564b;" x="352.090909" xlink:href="#m9c62b29e0d" y="354.94502"/>
     <use style="fill:#8c564b;stroke:#8c564b;" x="385.909091" xlink:href="#m9c62b29e0d" y="363.876787"/>
     <use style="fill:#8c564b;stroke:#8c564b;" x="419.727273" xlink:href="#m9c62b29e0d" y="370.487326"/>
     <use style="fill:#8c564b;stroke:#8c564b;" x="453.545455" xlink:href="#m9c62b29e0d" y="375.130369"/>
     <use style="fill:#8c564b;stroke:#8c564b;" x="487.363636" xlink:href="#m9c62b29e0d" y="379.12968"/>
     <use style="fill:#8c564b;stroke:#8c564b;" x="521.181818" xlink:href="#m9c62b29e0d" y="380.731991"/>
     <use style="fill:#8c564b;stroke:#8c564b;" x="555" xlink:href="#m9c62b29e0d" y="384.022532"/>
     <use style="fill:#8c564b;stroke:#8c564b;" x="588.818182" xlink:href="#m9c62b29e0d" y="385.248464"/>
     <use style="fill:#8c564b;stroke:#8c564b;" x="622.636364" xlink:href="#m9c62b29e0d" y="387.739742"/>
    </g>
   </g>
   <g id="patch_3">
    <path d="M 90 441 
L 90 60.48 
" style="fill:none;stroke:#000000;stroke-linecap:square;stroke-linejoin:miter;stroke-width:0.8;"/>
   </g>
   <g id="patch_4">
    <path d="M 648 441 
L 648 60.48 
" style="fill:none;stroke:#000000;stroke-linecap:square;stroke-linejoin:miter;stroke-width:0.8;"/>
   </g>
   <g id="patch_5">
    <path d="M 90 441 
L 648 441 
" style="fill:none;stroke:#000000;stroke-linecap:square;stroke-linejoin:miter;stroke-width:0.8;"/>
   </g>
   <g id="patch_6">
    <path d="M 90 60.48 
L 648 60.48 
" style="fill:none;stroke:#000000;stroke-linecap:square;stroke-linejoin:miter;stroke-width:0.8;"/>
   </g>
   <g id="legend_1">
    <g id="patch_7">
     <path d="M 537.100781 204.583125 
L 637.5 204.583125 
Q 640.5 204.583125 640.5 201.583125 
L 640.5 70.98 
Q 640.5 67.98 637.5 67.98 
L 537.100781 67.98 
Q 534.100781 67.98 534.100781 70.98 
L 534.100781 201.583125 
Q 534.100781 204.583125 537.100781 204.583125 
z
" style="fill:#ffffff;opacity:0.8;stroke:#cccccc;stroke-linejoin:miter;"/>
    </g>
    <g id="line2d_21">
     <path d="M 540.100781 80.127656 
L 570.100781 80.127656 
" style="fill:none;stroke:#1f77b4;stroke-linecap:square;stroke-width:3;"/>
    </g>
    <g id="line2d_22">
     <g>
      <use style="fill:#1f77b4;stroke:#1f77b4;" x="555.100781" xlink:href="#mff64efc627" y="80.127656"/>
     </g>
    </g>
    <g id="text_17">
     <!-- nofeat -->
     <g transform="translate(582.100781 85.377656)scale(0.15 -0.15)">
      <use xlink:href="#DejaVuSans-6e"/>
      <use x="63.378906" xlink:href="#DejaVuSans-6f"/>
      <use x="124.560547" xlink:href="#DejaVuSans-66"/>
      <use x="159.765625" xlink:href="#DejaVuSans-65"/>
      <use x="221.289062" xlink:href="#DejaVuSans-61"/>
      <use x="282.568359" xlink:href="#DejaVuSans-74"/>
     </g>
    </g>
    <g id="line2d_23">
     <path d="M 540.100781 102.144844 
L 570.100781 102.144844 
" style="fill:none;stroke:#ff7f0e;stroke-linecap:square;stroke-width:3;"/>
    </g>
    <g id="line2d_24">
     <g>
      <use style="fill:#ff7f0e;stroke:#ff7f0e;" x="555.100781" xlink:href="#m37ef82b9f3" y="102.144844"/>
     </g>
    </g>
    <g id="text_18">
     <!-- mod2 -->
     <g transform="translate(582.100781 107.394844)scale(0.15 -0.15)">
      <use xlink:href="#DejaVuSans-6d"/>
      <use x="97.412109" xlink:href="#DejaVuSans-6f"/>
      <use x="158.59375" xlink:href="#DejaVuSans-64"/>
      <use x="222.070312" xlink:href="#DejaVuSans-32"/>
     </g>
    </g>
    <g id="line2d_25">
     <path d="M 540.100781 124.162031 
L 570.100781 124.162031 
" style="fill:none;stroke:#2ca02c;stroke-linecap:square;stroke-width:3;"/>
    </g>
    <g id="line2d_26">
     <g>
      <use style="fill:#2ca02c;stroke:#2ca02c;" x="555.100781" xlink:href="#mcd58c3257e" y="124.162031"/>
     </g>
    </g>
    <g id="text_19">
     <!-- mod5 -->
     <g transform="translate(582.100781 129.412031)scale(0.15 -0.15)">
      <use xlink:href="#DejaVuSans-6d"/>
      <use x="97.412109" xlink:href="#DejaVuSans-6f"/>
      <use x="158.59375" xlink:href="#DejaVuSans-64"/>
      <use x="222.070312" xlink:href="#DejaVuSans-35"/>
     </g>
    </g>
    <g id="line2d_27">
     <path d="M 540.100781 146.179219 
L 570.100781 146.179219 
" style="fill:none;stroke:#d62728;stroke-linecap:square;stroke-width:3;"/>
    </g>
    <g id="line2d_28">
     <g>
      <use style="fill:#d62728;stroke:#d62728;" x="555.100781" xlink:href="#m93b5e00f0a" y="146.179219"/>
     </g>
    </g>
    <g id="text_20">
     <!-- mod10 -->
     <g transform="translate(582.100781 151.429219)scale(0.15 -0.15)">
      <use xlink:href="#DejaVuSans-6d"/>
      <use x="97.412109" xlink:href="#DejaVuSans-6f"/>
      <use x="158.59375" xlink:href="#DejaVuSans-64"/>
      <use x="222.070312" xlink:href="#DejaVuSans-31"/>
      <use x="285.693359" xlink:href="#DejaVuSans-30"/>
     </g>
    </g>
    <g id="line2d_29">
     <path d="M 540.100781 168.196406 
L 570.100781 168.196406 
" style="fill:none;stroke:#9467bd;stroke-linecap:square;stroke-width:3;"/>
    </g>
    <g id="line2d_30">
     <g>
      <use style="fill:#9467bd;stroke:#9467bd;" x="555.100781" xlink:href="#m5f9e4c6615" y="168.196406"/>
     </g>
    </g>
    <g id="text_21">
     <!-- mod4 -->
     <g transform="translate(582.100781 173.446406)scale(0.15 -0.15)">
      <use xlink:href="#DejaVuSans-6d"/>
      <use x="97.412109" xlink:href="#DejaVuSans-6f"/>
      <use x="158.59375" xlink:href="#DejaVuSans-64"/>
      <use x="222.070312" xlink:href="#DejaVuSans-34"/>
     </g>
    </g>
    <g id="line2d_31">
     <path d="M 540.100781 190.213594 
L 570.100781 190.213594 
" style="fill:none;stroke:#8c564b;stroke-linecap:square;stroke-width:3;"/>
    </g>
    <g id="line2d_32">
     <g>
      <use style="fill:#8c564b;stroke:#8c564b;" x="555.100781" xlink:href="#m9c62b29e0d" y="190.213594"/>
     </g>
    </g>
    <g id="text_22">
     <!-- mod3 -->
     <defs>
      <path d="M 40.578125 39.3125 
Q 47.65625 37.796875 51.625 33 
Q 55.609375 28.21875 55.609375 21.1875 
Q 55.609375 10.40625 48.1875 4.484375 
Q 40.765625 -1.421875 27.09375 -1.421875 
Q 22.515625 -1.421875 17.65625 -0.515625 
Q 12.796875 0.390625 7.625 2.203125 
L 7.625 11.71875 
Q 11.71875 9.328125 16.59375 8.109375 
Q 21.484375 6.890625 26.8125 6.890625 
Q 36.078125 6.890625 40.9375 10.546875 
Q 45.796875 14.203125 45.796875 21.1875 
Q 45.796875 27.640625 41.28125 31.265625 
Q 36.765625 34.90625 28.71875 34.90625 
L 20.21875 34.90625 
L 20.21875 43.015625 
L 29.109375 43.015625 
Q 36.375 43.015625 40.234375 45.921875 
Q 44.09375 48.828125 44.09375 54.296875 
Q 44.09375 59.90625 40.109375 62.90625 
Q 36.140625 65.921875 28.71875 65.921875 
Q 24.65625 65.921875 20.015625 65.03125 
Q 15.375 64.15625 9.8125 62.3125 
L 9.8125 71.09375 
Q 15.4375 72.65625 20.34375 73.4375 
Q 25.25 74.21875 29.59375 74.21875 
Q 40.828125 74.21875 47.359375 69.109375 
Q 53.90625 64.015625 53.90625 55.328125 
Q 53.90625 49.265625 50.4375 45.09375 
Q 46.96875 40.921875 40.578125 39.3125 
z
" id="DejaVuSans-33"/>
     </defs>
     <g transform="translate(582.100781 195.463594)scale(0.15 -0.15)">
      <use xlink:href="#DejaVuSans-6d"/>
      <use x="97.412109" xlink:href="#DejaVuSans-6f"/>
      <use x="158.59375" xlink:href="#DejaVuSans-64"/>
      <use x="222.070312" xlink:href="#DejaVuSans-33"/>
     </g>
    </g>
   </g>
  </g>
 </g>
 <defs>
  <clipPath id="pad279afd61">
   <rect height="380.52" width="558" x="90" y="60.48"/>
  </clipPath>
 </defs>
</svg>
